<svg id="svg" version="1.1" xmlns="http://www.w3.org/2000/svg" xmlns:xlink="http://www.w3.org/1999/xlink" width="400" height="159.9264705882353" viewBox="0, 0, 400,159.9264705882353"><g id="svgg"><path id="path0" d="M134.939 22.289 C 132.564 26.976,126.522 30.840,120.007 31.839 C 110.411 33.309,100.051 31.928,84.333 27.081 C 65.699 21.334,59.754 20.788,52.558 24.160 C 39.926 30.079,38.948 46.337,51.078 48.773 C 57.049 49.972,63.910 45.005,65.270 38.500 C 66.648 31.909,60.286 28.498,55.471 33.245 C 51.116 37.539,50.753 44.500,54.883 44.500 C 55.182 44.500,55.336 44.575,55.294 44.701 C 55.062 45.397,51.244 45.322,49.750 44.591 C 43.476 41.521,45.703 31.518,53.526 27.634 C 60.884 23.980,68.904 25.413,87.000 33.614 C 89.612 34.798,92.517 36.101,93.455 36.508 C 95.475 37.388,95.439 37.307,94.092 37.894 C 84.473 42.084,77.190 51.944,65.515 76.583 C 56.196 96.249,52.098 102.814,46.539 106.987 C 41.669 110.642,34.928 110.750,31.394 107.229 C 26.541 102.396,27.756 91.975,33.925 85.528 L 34.989 84.417 34.994 85.751 C 35.008 89.051,36.289 90.283,39.546 90.130 C 48.736 89.696,54.493 76.343,46.071 74.998 C 32.259 72.792,18.102 93.523,24.502 106.583 C 27.335 112.366,32.713 115.001,41.245 114.787 C 55.392 114.432,66.682 102.673,81.204 73.167 C 91.097 53.067,91.964 51.373,94.769 46.647 C 96.027 44.527,98.451 41.258,99.569 40.173 L 100.335 39.429 101.126 39.732 C 112.923 44.260,118.350 44.768,125.289 41.996 C 132.027 39.305,137.104 32.836,138.542 25.113 L 138.784 23.809 137.272 22.779 C 136.441 22.213,135.667 21.691,135.552 21.620 C 135.410 21.531,135.216 21.743,134.939 22.289 M141.702 41.812 L 140.320 42.083 139.494 43.811 C 138.481 45.928,138.479 45.833,139.542 45.834 C 141.250 45.834,142.286 46.835,142.080 48.287 C 141.982 48.984,140.781 52.040,137.872 59.000 C 137.048 60.971,135.118 65.696,133.582 69.500 C 132.047 73.304,130.517 77.093,130.184 77.920 C 128.917 81.058,126.334 83.069,123.556 83.078 C 120.475 83.089,120.495 82.885,124.516 73.134 C 130.928 57.583,131.500 56.189,131.500 56.095 C 131.500 56.043,129.343 56.000,126.707 56.000 L 121.914 56.000 116.940 68.125 L 111.967 80.250 111.000 81.188 C 108.859 83.267,105.638 83.961,104.709 82.544 C 104.198 81.765,104.384 80.937,105.920 77.151 C 111.263 63.986,111.505 63.323,111.747 61.211 C 112.195 57.287,109.987 55.344,105.083 55.346 C 103.684 55.346,100.645 55.787,100.427 56.021 C 100.320 56.137,98.833 59.381,98.833 59.501 C 98.833 59.566,99.285 59.666,99.838 59.724 C 101.686 59.917,102.492 60.756,102.259 62.241 C 102.148 62.949,99.591 69.392,96.824 75.932 C 93.791 83.103,93.512 86.018,95.634 88.367 C 98.378 91.404,105.706 90.473,110.192 86.517 C 111.106 85.711,111.290 85.678,111.437 86.292 C 112.503 90.726,119.486 91.518,125.241 87.858 C 126.336 87.161,126.388 87.186,125.977 88.208 C 125.321 89.841,124.839 89.678,130.167 89.628 L 134.874 89.583 135.145 88.889 C 135.533 87.898,135.582 87.885,136.351 88.579 C 140.976 92.758,151.869 88.689,157.535 80.666 C 164.074 71.406,165.725 61.757,161.502 57.489 C 158.752 54.711,154.420 54.603,149.522 57.191 C 148.663 57.645,147.944 57.994,147.924 57.967 C 147.904 57.939,148.509 56.417,149.267 54.583 C 152.797 46.053,152.463 42.950,147.885 41.763 C 146.574 41.424,143.556 41.447,141.702 41.812 M308.863 41.795 L 307.476 42.053 306.571 43.857 C 306.074 44.849,305.667 45.700,305.667 45.747 C 305.667 45.795,306.082 45.833,306.589 45.833 C 309.842 45.833,309.917 47.001,307.104 53.780 C 305.073 58.676,303.489 62.547,300.160 70.750 C 296.074 80.818,294.500 82.842,290.532 83.126 C 287.230 83.362,287.248 82.635,290.752 74.328 C 292.200 70.894,294.192 66.096,295.177 63.667 L 296.969 59.250 293.151 59.205 C 291.051 59.181,289.333 59.128,289.333 59.089 C 289.333 59.049,289.557 58.685,289.831 58.280 C 293.380 53.021,291.925 48.076,287.094 48.974 C 283.979 49.553,281.604 51.922,280.051 56.000 C 278.308 60.574,280.852 63.451,285.310 61.949 C 286.459 61.562,286.537 61.150,284.560 65.917 C 283.610 68.208,282.616 70.608,282.352 71.250 C 282.088 71.892,281.145 74.179,280.258 76.333 C 277.883 82.101,277.446 84.310,278.226 86.612 C 279.926 91.630,288.591 91.295,294.400 85.986 C 295.488 84.992,295.417 84.995,295.655 85.939 C 297.224 92.171,306.970 91.511,313.301 84.744 L 314.603 83.352 315.066 84.835 C 317.034 91.149,324.226 92.024,331.425 86.827 C 333.025 85.673,332.933 85.702,333.070 86.292 C 334.362 91.845,343.948 91.355,349.919 85.431 C 351.759 83.606,353.646 80.742,353.412 80.130 C 353.293 79.820,354.808 77.571,355.775 76.623 C 362.620 69.910,372.439 78.028,369.435 87.917 C 366.635 97.133,355.837 104.744,341.320 107.733 C 328.416 110.389,297.991 110.187,267.750 107.245 C 260.095 106.500,258.324 106.318,247.583 105.168 C 246.758 105.080,244.133 104.783,241.750 104.510 C 232.378 103.434,223.944 102.524,216.250 101.758 C 214.875 101.621,212.967 101.431,212.009 101.335 C 177.958 97.933,139.429 97.348,119.750 99.936 C 90.921 103.727,66.895 116.405,54.808 134.205 C 54.056 135.312,54.043 135.303,55.679 134.743 C 72.217 129.082,90.061 133.063,95.919 143.720 C 96.661 145.070,96.407 145.095,98.137 143.503 C 110.850 131.805,133.107 123.683,160.917 120.593 C 162.200 120.451,163.925 120.259,164.750 120.167 C 182.078 118.244,203.777 117.864,236.333 118.912 C 246.895 119.252,252.843 119.462,257.583 119.662 C 259.783 119.754,264.508 119.946,268.083 120.087 C 271.658 120.229,276.308 120.415,278.417 120.503 C 299.282 121.365,316.811 120.995,326.917 119.481 C 330.128 118.999,334.332 118.285,335.708 117.986 C 336.556 117.802,337.475 117.607,337.750 117.553 C 347.339 115.670,358.229 110.892,364.586 105.780 C 375.590 96.932,378.214 83.820,370.628 75.588 C 364.597 69.043,354.672 70.380,351.851 78.117 C 350.702 81.268,346.231 84.041,343.936 83.026 C 342.612 82.440,342.662 81.612,344.257 77.750 C 344.863 76.283,345.756 74.108,346.241 72.917 C 346.726 71.725,348.889 66.438,351.046 61.167 C 355.967 49.145,356.389 47.806,356.006 45.453 C 355.464 42.125,351.902 40.778,346.300 41.784 L 344.683 42.074 343.908 43.745 C 343.482 44.665,343.095 45.510,343.049 45.625 C 342.987 45.777,343.221 45.833,343.915 45.833 C 347.045 45.833,347.208 47.123,344.816 52.968 C 342.627 58.318,342.944 57.840,342.109 57.048 C 337.894 53.054,327.772 56.283,321.973 63.474 C 319.127 67.002,315.729 73.670,315.079 77.000 C 314.463 80.153,309.416 83.992,306.954 83.179 C 305.247 82.616,305.287 81.905,307.305 76.917 C 308.120 74.900,309.332 71.900,309.997 70.250 C 310.662 68.600,311.769 65.900,312.457 64.250 C 313.145 62.600,314.028 60.462,314.418 59.500 C 314.808 58.538,315.632 56.512,316.248 55.000 C 318.900 48.485,319.344 46.040,318.244 44.000 C 317.055 41.793,313.437 40.943,308.863 41.795 M183.667 55.580 C 175.786 57.060,169.438 62.949,165.785 72.167 C 162.921 79.396,164.190 85.516,169.181 88.534 C 174.341 91.654,185.328 90.280,191.491 85.744 C 192.672 84.874,192.667 84.876,192.667 85.415 C 192.667 86.626,193.739 88.361,194.971 89.143 C 198.481 91.371,204.361 90.083,209.124 86.043 C 209.781 85.485,210.195 85.234,210.234 85.368 C 211.428 89.489,214.959 90.975,221.033 89.912 C 228.941 88.529,233.554 83.805,239.254 71.254 C 239.921 69.785,240.691 68.096,240.967 67.500 C 241.242 66.904,242.030 65.179,242.719 63.667 C 243.407 62.154,244.497 59.810,245.141 58.458 L 246.312 56.000 241.447 56.005 L 236.583 56.010 234.924 59.713 C 230.364 69.891,229.305 72.292,228.290 74.750 C 226.773 78.426,226.231 80.150,226.010 82.000 C 225.799 83.759,225.706 83.901,224.333 84.539 C 223.380 84.982,221.879 85.011,221.249 84.598 C 219.389 83.380,220.300 79.139,224.678 68.630 C 227.338 62.243,227.674 59.506,226.058 57.372 C 224.590 55.434,220.271 54.772,216.123 55.851 C 215.534 56.004,215.440 56.125,214.580 57.840 L 213.664 59.667 214.290 59.671 C 217.710 59.692,217.929 61.264,215.383 67.500 C 213.226 72.782,211.555 77.020,210.994 78.629 C 209.782 82.107,205.397 84.461,203.346 82.735 C 202.369 81.913,202.288 82.198,206.297 72.333 C 210.015 63.185,210.458 61.641,210.051 59.262 C 209.504 56.069,205.790 54.621,200.645 55.597 C 198.815 55.944,198.913 55.862,197.983 57.851 L 197.174 59.583 198.211 59.717 C 201.557 60.147,201.511 60.674,197.218 71.109 L 194.083 78.731 192.750 80.082 C 185.067 87.867,173.395 86.758,173.876 78.289 C 174.005 76.007,173.572 76.227,178.134 76.121 C 185.853 75.942,189.984 73.644,192.882 67.917 C 196.874 60.027,192.336 53.951,183.667 55.580 M261.500 55.591 C 254.806 56.809,249.026 61.637,245.251 69.165 C 238.458 82.710,242.667 92.151,254.498 89.907 C 260.953 88.683,266.927 83.686,270.722 76.337 C 277.518 63.178,273.199 53.462,261.500 55.591 M186.621 59.452 C 188.214 61.886,183.702 71.236,180.312 72.523 C 179.505 72.830,175.333 73.000,175.333 72.726 C 175.333 71.978,179.159 65.105,180.831 62.850 C 183.306 59.513,185.730 58.090,186.621 59.452 M264.614 59.580 C 266.495 61.716,263.625 72.369,259.192 79.708 C 253.265 89.520,248.665 87.928,251.850 77.167 C 255.052 66.349,262.065 56.685,264.614 59.580 M340.167 60.201 C 341.803 60.808,342.031 60.006,336.419 73.417 C 335.115 76.533,333.832 79.640,333.570 80.320 C 332.631 82.749,328.273 85.171,325.793 84.642 C 321.973 83.827,323.986 75.430,330.302 65.833 C 333.355 61.195,337.091 59.061,340.167 60.201 M153.490 61.138 C 156.373 62.684,153.756 71.843,148.077 80.083 C 145.145 84.336,140.168 86.769,137.886 85.064 C 137.016 84.415,137.007 84.467,138.709 80.398 C 139.587 78.300,141.066 74.708,141.997 72.417 C 145.699 63.301,145.347 64.021,146.534 63.128 C 149.270 61.067,151.935 60.304,153.490 61.138 " stroke="none" fill="#fafbfb" fill-rule="evenodd"></path><path id="path1" d="M60.625 22.118 C 60.831 22.157,61.169 22.157,61.375 22.118 C 61.581 22.078,61.413 22.045,61.000 22.045 C 60.587 22.045,60.419 22.078,60.625 22.118 M63.292 22.118 C 63.498 22.157,63.835 22.157,64.042 22.118 C 64.248 22.078,64.079 22.045,63.667 22.045 C 63.254 22.045,63.085 22.078,63.292 22.118 M132.079 25.875 L 130.917 27.083 132.125 25.921 C 132.790 25.282,133.333 24.738,133.333 24.713 C 133.333 24.591,133.158 24.753,132.079 25.875 M63.875 25.948 C 64.035 25.990,64.298 25.990,64.458 25.948 C 64.619 25.906,64.487 25.872,64.167 25.872 C 63.846 25.872,63.715 25.906,63.875 25.948 M46.913 28.042 L 45.583 29.417 46.958 28.087 C 48.235 26.853,48.409 26.667,48.288 26.667 C 48.263 26.667,47.644 27.285,46.913 28.042 M45.167 30.000 C 44.971 30.275,44.848 30.500,44.894 30.500 C 44.940 30.500,45.138 30.275,45.333 30.000 C 45.529 29.725,45.652 29.500,45.606 29.500 C 45.560 29.500,45.362 29.725,45.167 30.000 M49.577 30.542 L 48.750 31.417 49.625 30.590 C 50.106 30.135,50.500 29.741,50.500 29.715 C 50.500 29.590,50.346 29.729,49.577 30.542 M135.917 32.333 C 135.774 32.608,135.696 32.833,135.741 32.833 C 135.787 32.833,135.941 32.608,136.083 32.333 C 136.226 32.058,136.304 31.833,136.259 31.833 C 136.213 31.833,136.059 32.058,135.917 32.333 M106.708 32.115 C 106.869 32.157,107.131 32.157,107.292 32.115 C 107.452 32.073,107.321 32.039,107.000 32.039 C 106.679 32.039,106.548 32.073,106.708 32.115 M117.542 32.115 C 117.702 32.157,117.965 32.157,118.125 32.115 C 118.285 32.073,118.154 32.039,117.833 32.039 C 117.513 32.039,117.381 32.073,117.542 32.115 M108.542 32.282 C 108.702 32.323,108.965 32.323,109.125 32.282 C 109.285 32.240,109.154 32.205,108.833 32.205 C 108.513 32.205,108.381 32.240,108.542 32.282 M115.627 32.285 C 115.834 32.324,116.134 32.323,116.294 32.281 C 116.453 32.239,116.283 32.207,115.917 32.209 C 115.550 32.211,115.420 32.245,115.627 32.285 M112.042 32.448 C 112.202 32.490,112.465 32.490,112.625 32.448 C 112.785 32.406,112.654 32.372,112.333 32.372 C 112.013 32.372,111.881 32.406,112.042 32.448 M46.417 35.833 C 46.353 36.121,46.336 36.392,46.379 36.434 C 46.421 36.477,46.504 36.272,46.563 35.979 C 46.701 35.284,46.567 35.150,46.417 35.833 M132.742 36.875 L 132.083 37.583 132.792 36.925 C 133.450 36.312,133.577 36.167,133.450 36.167 C 133.423 36.167,133.105 36.485,132.742 36.875 M52.694 37.090 C 52.414 37.703,52.468 37.834,52.770 37.277 C 52.911 37.017,52.995 36.773,52.957 36.735 C 52.919 36.696,52.800 36.857,52.694 37.090 M42.389 38.333 C 42.389 39.021,42.419 39.302,42.455 38.958 C 42.491 38.615,42.491 38.052,42.455 37.708 C 42.419 37.365,42.389 37.646,42.389 38.333 M46.039 38.333 C 46.039 38.654,46.073 38.785,46.115 38.625 C 46.157 38.465,46.157 38.202,46.115 38.042 C 46.073 37.881,46.039 38.012,46.039 38.333 M131.158 38.458 L 130.583 39.083 131.208 38.509 C 131.790 37.974,131.910 37.833,131.783 37.833 C 131.755 37.833,131.474 38.115,131.158 38.458 M99.328 40.458 L 98.417 41.417 99.375 40.506 C 99.902 40.005,100.333 39.573,100.333 39.547 C 100.333 39.424,100.174 39.568,99.328 40.458 M64.200 41.420 C 64.001 41.831,63.873 42.167,63.915 42.167 C 64.028 42.167,64.702 40.813,64.626 40.738 C 64.591 40.703,64.400 41.010,64.200 41.420 M144.380 41.456 C 144.818 41.490,145.493 41.490,145.880 41.455 C 146.267 41.420,145.908 41.392,145.083 41.392 C 144.258 41.393,143.942 41.422,144.380 41.456 M311.458 41.455 C 311.848 41.490,312.485 41.490,312.875 41.455 C 313.265 41.420,312.946 41.392,312.167 41.392 C 311.387 41.392,311.069 41.420,311.458 41.455 M348.792 41.455 C 349.181 41.490,349.819 41.490,350.208 41.455 C 350.598 41.420,350.279 41.392,349.500 41.392 C 348.721 41.392,348.402 41.420,348.792 41.455 M46.911 41.989 C 47.050 42.259,47.240 42.526,47.332 42.583 C 47.425 42.640,47.343 42.420,47.150 42.093 C 46.728 41.378,46.556 41.303,46.911 41.989 M87.240 42.208 L 86.750 42.750 87.292 42.260 C 87.590 41.991,87.833 41.748,87.833 41.719 C 87.833 41.590,87.696 41.703,87.240 42.208 M52.000 42.306 C 52.000 42.897,53.207 44.333,53.704 44.333 C 53.802 44.333,53.628 44.164,53.316 43.957 C 53.005 43.750,52.581 43.247,52.375 42.838 C 52.169 42.430,52.000 42.191,52.000 42.306 M139.449 43.592 C 138.837 44.839,138.894 44.987,139.519 43.775 C 139.796 43.239,139.994 42.772,139.960 42.738 C 139.926 42.704,139.696 43.088,139.449 43.592 M47.500 42.885 C 47.500 42.914,47.744 43.158,48.042 43.427 L 48.583 43.917 48.094 43.375 C 47.638 42.870,47.500 42.757,47.500 42.885 M85.573 43.708 L 85.083 44.250 85.625 43.760 C 85.923 43.491,86.167 43.248,86.167 43.219 C 86.167 43.090,86.029 43.203,85.573 43.708 M115.881 43.790 C 116.412 43.823,117.237 43.823,117.714 43.789 C 118.192 43.756,117.758 43.729,116.750 43.729 C 115.742 43.729,115.351 43.757,115.881 43.790 M54.877 44.615 C 55.039 44.657,55.121 44.773,55.060 44.872 C 54.994 44.979,55.027 45.003,55.141 44.933 C 55.461 44.735,55.357 44.499,54.958 44.519 C 54.673 44.534,54.654 44.557,54.877 44.615 M61.409 45.375 L 60.750 46.083 61.458 45.425 C 62.117 44.812,62.243 44.667,62.117 44.667 C 62.090 44.667,61.771 44.985,61.409 45.375 M138.662 45.176 C 138.561 45.364,138.503 45.593,138.533 45.683 C 138.563 45.774,138.674 45.620,138.780 45.341 C 138.999 44.760,138.933 44.669,138.662 45.176 M83.491 45.958 L 82.917 46.583 83.542 46.009 C 83.885 45.693,84.167 45.412,84.167 45.384 C 84.167 45.257,84.026 45.377,83.491 45.958 M318.705 47.333 C 318.705 47.654,318.740 47.785,318.782 47.625 C 318.823 47.465,318.823 47.202,318.782 47.042 C 318.740 46.881,318.705 47.012,318.705 47.333 M356.039 47.333 C 356.039 47.654,356.073 47.785,356.115 47.625 C 356.157 47.465,356.157 47.202,356.115 47.042 C 356.073 46.881,356.039 47.012,356.039 47.333 M291.875 52.583 C 291.877 52.950,291.911 53.080,291.951 52.873 C 291.991 52.666,291.990 52.366,291.948 52.206 C 291.906 52.047,291.874 52.217,291.875 52.583 M90.917 53.500 C 90.774 53.775,90.696 54.000,90.741 54.000 C 90.787 54.000,90.941 53.775,91.083 53.500 C 91.226 53.225,91.304 53.000,91.259 53.000 C 91.213 53.000,91.059 53.225,90.917 53.500 M104.628 55.287 C 104.928 55.325,105.378 55.324,105.628 55.286 C 105.878 55.248,105.633 55.217,105.083 55.218 C 104.533 55.219,104.328 55.250,104.628 55.287 M155.460 55.285 C 155.668 55.324,155.968 55.323,156.127 55.281 C 156.286 55.239,156.117 55.207,155.750 55.209 C 155.383 55.211,155.253 55.245,155.460 55.285 M186.544 55.286 C 186.797 55.325,187.172 55.324,187.377 55.284 C 187.582 55.244,187.375 55.213,186.917 55.214 C 186.458 55.216,186.291 55.248,186.544 55.286 M202.961 55.287 C 203.261 55.325,203.711 55.324,203.961 55.286 C 204.212 55.248,203.967 55.217,203.417 55.218 C 202.867 55.219,202.662 55.250,202.961 55.287 M219.628 55.287 C 219.928 55.325,220.378 55.324,220.628 55.286 C 220.878 55.248,220.633 55.217,220.083 55.218 C 219.533 55.219,219.328 55.250,219.628 55.287 M264.292 55.284 C 264.498 55.324,264.835 55.324,265.042 55.284 C 265.248 55.245,265.079 55.212,264.667 55.212 C 264.254 55.212,264.085 55.245,264.292 55.284 M337.292 55.284 C 337.498 55.324,337.835 55.324,338.042 55.284 C 338.248 55.245,338.079 55.212,337.667 55.212 C 337.254 55.212,337.085 55.245,337.292 55.284 M342.151 57.035 C 342.644 57.572,343.000 57.716,343.000 57.379 C 343.000 57.323,342.949 57.329,342.886 57.392 C 342.823 57.455,342.504 57.261,342.178 56.961 L 341.583 56.417 342.151 57.035 M198.113 57.258 C 197.722 58.079,197.777 58.219,198.186 57.443 C 198.372 57.090,198.495 56.772,198.459 56.736 C 198.423 56.700,198.267 56.935,198.113 57.258 M271.417 57.833 C 271.868 58.292,272.275 58.667,272.321 58.667 C 272.367 58.667,272.035 58.292,271.583 57.833 C 271.132 57.375,270.725 57.000,270.679 57.000 C 270.633 57.000,270.965 57.375,271.417 57.833 M111.106 57.583 C 111.492 58.241,111.500 58.251,111.500 58.046 C 111.500 57.949,111.346 57.693,111.157 57.477 L 110.814 57.083 111.106 57.583 M279.387 58.667 C 279.387 59.262,279.417 59.506,279.454 59.208 C 279.491 58.910,279.491 58.423,279.454 58.125 C 279.417 57.827,279.387 58.071,279.387 58.667 M197.101 59.430 C 196.946 59.834,196.948 59.835,197.792 59.804 L 198.583 59.775 197.884 59.712 C 197.357 59.664,197.207 59.589,197.277 59.408 C 197.327 59.275,197.331 59.167,197.286 59.167 C 197.240 59.167,197.157 59.285,197.101 59.430 M98.669 59.542 C 98.667 59.783,98.804 59.828,99.458 59.805 C 100.242 59.778,100.244 59.777,99.585 59.710 C 99.220 59.672,98.865 59.554,98.796 59.446 C 98.714 59.316,98.671 59.349,98.669 59.542 M214.044 59.786 C 214.297 59.825,214.672 59.824,214.877 59.784 C 215.082 59.744,214.875 59.713,214.417 59.714 C 213.958 59.716,213.791 59.748,214.044 59.786 M227.052 60.583 C 227.053 61.133,227.084 61.338,227.121 61.039 C 227.158 60.739,227.157 60.289,227.119 60.039 C 227.081 59.788,227.051 60.033,227.052 60.583 M260.328 60.958 L 259.417 61.917 260.375 61.006 C 261.265 60.159,261.410 60.000,261.286 60.000 C 261.260 60.000,260.829 60.431,260.328 60.958 M279.500 60.064 C 279.500 60.243,279.996 61.167,280.092 61.167 C 280.138 61.167,280.051 60.923,279.900 60.625 C 279.590 60.017,279.500 59.890,279.500 60.064 M186.881 60.917 C 186.882 61.375,186.915 61.543,186.953 61.289 C 186.991 61.036,186.990 60.661,186.951 60.456 C 186.911 60.251,186.880 60.458,186.881 60.917 M200.106 60.583 C 200.492 61.241,200.500 61.251,200.500 61.046 C 200.500 60.949,200.346 60.693,200.157 60.477 L 199.814 60.083 200.106 60.583 M172.412 61.542 L 171.250 62.750 172.458 61.588 C 173.581 60.508,173.743 60.333,173.621 60.333 C 173.595 60.333,173.051 60.877,172.412 61.542 M243.860 61.090 C 243.581 61.703,243.634 61.834,243.936 61.277 C 244.077 61.017,244.162 60.773,244.123 60.735 C 244.085 60.696,243.967 60.857,243.860 61.090 M323.409 61.708 L 322.750 62.417 323.458 61.758 C 323.848 61.395,324.167 61.077,324.167 61.050 C 324.167 60.923,324.022 61.050,323.409 61.708 M102.205 61.833 C 102.205 62.154,102.240 62.285,102.282 62.125 C 102.323 61.965,102.323 61.702,102.282 61.542 C 102.240 61.381,102.205 61.512,102.205 61.833 M200.542 61.917 C 200.544 62.283,200.578 62.414,200.618 62.206 C 200.658 61.999,200.656 61.699,200.615 61.540 C 200.573 61.380,200.540 61.550,200.542 61.917 M217.045 62.000 C 217.045 62.413,217.078 62.581,217.118 62.375 C 217.157 62.169,217.157 61.831,217.118 61.625 C 217.078 61.419,217.045 61.587,217.045 62.000 M194.379 62.500 C 194.379 62.913,194.411 63.081,194.451 62.875 C 194.491 62.669,194.491 62.331,194.451 62.125 C 194.411 61.919,194.379 62.087,194.379 62.500 M332.667 62.750 C 332.262 63.163,331.968 63.500,332.014 63.500 C 332.060 63.500,332.428 63.163,332.833 62.750 C 333.238 62.337,333.532 62.000,333.486 62.000 C 333.440 62.000,333.072 62.337,332.667 62.750 M163.892 64.250 C 163.892 65.075,163.920 65.434,163.955 65.047 C 163.990 64.660,163.990 63.985,163.956 63.547 C 163.922 63.109,163.893 63.425,163.892 64.250 M154.718 64.083 C 154.719 64.633,154.750 64.838,154.787 64.539 C 154.825 64.239,154.824 63.789,154.786 63.539 C 154.748 63.288,154.717 63.533,154.718 64.083 M85.365 64.591 C 84.863 65.625,84.919 65.770,85.436 64.775 C 85.667 64.331,85.828 63.939,85.793 63.904 C 85.758 63.869,85.565 64.179,85.365 64.591 M274.052 65.083 C 274.053 65.633,274.084 65.838,274.121 65.539 C 274.158 65.239,274.157 64.789,274.119 64.539 C 274.081 64.288,274.051 64.533,274.052 65.083 M70.825 65.349 C 70.634 65.725,70.505 66.061,70.540 66.096 C 70.575 66.131,70.767 65.823,70.966 65.413 C 71.421 64.478,71.298 64.423,70.825 65.349 M185.280 66.091 C 184.888 66.912,184.943 67.052,185.353 66.276 C 185.539 65.924,185.661 65.606,185.625 65.570 C 185.589 65.534,185.434 65.768,185.280 66.091 M273.872 67.000 C 273.872 67.321,273.906 67.452,273.948 67.292 C 273.990 67.131,273.990 66.869,273.948 66.708 C 273.906 66.548,273.872 66.679,273.872 67.000 M184.250 68.167 C 184.018 68.625,183.865 69.000,183.911 69.000 C 183.957 69.000,184.184 68.625,184.417 68.167 C 184.649 67.708,184.801 67.333,184.756 67.333 C 184.710 67.333,184.482 67.708,184.250 68.167 M192.667 68.333 C 192.480 68.700,192.364 69.000,192.410 69.000 C 192.456 69.000,192.646 68.700,192.833 68.333 C 193.020 67.967,193.136 67.667,193.090 67.667 C 193.044 67.667,192.854 67.967,192.667 68.333 M167.075 69.015 C 166.929 69.299,166.838 69.561,166.875 69.597 C 166.911 69.633,167.065 69.401,167.217 69.081 C 167.560 68.362,167.441 68.308,167.075 69.015 M82.492 70.516 C 82.300 70.892,82.172 71.228,82.207 71.262 C 82.242 71.297,82.434 70.990,82.633 70.580 C 83.087 69.645,82.964 69.590,82.492 70.516 M189.910 72.042 L 189.083 72.917 189.958 72.090 C 190.440 71.635,190.833 71.241,190.833 71.215 C 190.833 71.090,190.679 71.229,189.910 72.042 M361.128 71.287 C 361.428 71.325,361.878 71.324,362.128 71.286 C 362.378 71.248,362.133 71.217,361.583 71.218 C 361.033 71.219,360.828 71.250,361.128 71.287 M67.365 72.425 C 66.863 73.458,66.919 73.603,67.436 72.609 C 67.667 72.164,67.828 71.772,67.793 71.737 C 67.758 71.702,67.565 72.012,67.365 72.425 M178.875 72.782 C 179.035 72.823,179.298 72.823,179.458 72.782 C 179.619 72.740,179.487 72.705,179.167 72.705 C 178.846 72.705,178.715 72.740,178.875 72.782 M354.242 74.375 L 353.583 75.083 354.292 74.425 C 354.950 73.812,355.077 73.667,354.950 73.667 C 354.923 73.667,354.605 73.985,354.242 74.375 M370.160 75.042 C 370.568 75.477,370.925 75.833,370.951 75.833 C 371.077 75.833,370.944 75.684,370.208 74.993 L 369.417 74.250 370.160 75.042 M180.708 76.115 C 180.869 76.157,181.131 76.157,181.292 76.115 C 181.452 76.073,181.321 76.039,181.000 76.039 C 180.679 76.039,180.548 76.073,180.708 76.115 M65.280 76.758 C 64.888 77.579,64.943 77.719,65.353 76.943 C 65.539 76.590,65.661 76.272,65.625 76.236 C 65.589 76.200,65.434 76.435,65.280 76.758 M164.205 78.167 C 164.205 78.487,164.240 78.619,164.282 78.458 C 164.323 78.298,164.323 78.035,164.282 77.875 C 164.240 77.715,164.205 77.846,164.205 78.167 M78.583 78.333 C 78.441 78.608,78.362 78.833,78.408 78.833 C 78.454 78.833,78.608 78.608,78.750 78.333 C 78.892 78.058,78.971 77.833,78.925 77.833 C 78.879 77.833,78.726 78.058,78.583 78.333 M193.956 78.543 L 193.662 79.083 193.998 78.690 C 194.283 78.355,194.436 77.997,194.292 78.001 C 194.269 78.002,194.118 78.245,193.956 78.543 M50.214 79.583 C 50.216 80.042,50.248 80.209,50.286 79.956 C 50.325 79.703,50.324 79.328,50.284 79.123 C 50.244 78.918,50.213 79.125,50.214 79.583 M241.892 80.583 C 241.892 81.408,241.920 81.767,241.955 81.380 C 241.990 80.993,241.990 80.318,241.956 79.880 C 241.922 79.442,241.893 79.758,241.892 80.583 M63.698 80.091 C 63.196 81.125,63.252 81.270,63.769 80.275 C 64.000 79.831,64.161 79.439,64.126 79.404 C 64.091 79.369,63.899 79.679,63.698 80.091 M192.577 80.208 L 191.750 81.083 192.625 80.256 C 193.106 79.801,193.500 79.408,193.500 79.381 C 193.500 79.257,193.346 79.395,192.577 80.208 M31.740 80.208 L 31.250 80.750 31.792 80.260 C 32.297 79.804,32.410 79.667,32.281 79.667 C 32.252 79.667,32.009 79.910,31.740 80.208 M164.205 80.333 C 164.205 80.654,164.240 80.785,164.282 80.625 C 164.323 80.465,164.323 80.202,164.282 80.042 C 164.240 79.881,164.205 80.012,164.205 80.333 M294.910 80.875 L 294.083 81.750 294.958 80.923 C 295.440 80.468,295.833 80.074,295.833 80.048 C 295.833 79.924,295.679 80.062,294.910 80.875 M77.000 81.333 C 76.813 81.700,76.697 82.000,76.743 82.000 C 76.789 82.000,76.980 81.700,77.167 81.333 C 77.354 80.967,77.469 80.667,77.423 80.667 C 77.378 80.667,77.187 80.967,77.000 81.333 M225.875 82.250 C 225.877 82.617,225.911 82.747,225.951 82.540 C 225.991 82.332,225.990 82.032,225.948 81.873 C 225.906 81.714,225.874 81.883,225.875 82.250 M29.573 82.375 L 29.083 82.917 29.625 82.427 C 29.923 82.158,30.167 81.914,30.167 81.885 C 30.167 81.757,30.029 81.870,29.573 82.375 M369.872 83.000 C 369.872 83.321,369.906 83.452,369.948 83.292 C 369.990 83.131,369.990 82.869,369.948 82.708 C 369.906 82.548,369.872 82.679,369.872 83.000 M277.875 83.250 C 277.877 83.617,277.911 83.747,277.951 83.540 C 277.991 83.332,277.990 83.032,277.948 82.873 C 277.906 82.714,277.874 82.883,277.875 83.250 M94.224 84.250 C 94.224 84.983,94.254 85.263,94.289 84.871 C 94.324 84.479,94.324 83.879,94.288 83.537 C 94.252 83.196,94.223 83.517,94.224 84.250 M307.460 83.285 C 307.668 83.324,307.968 83.323,308.127 83.281 C 308.286 83.239,308.117 83.207,307.750 83.209 C 307.383 83.211,307.253 83.245,307.460 83.285 M344.708 83.282 C 344.869 83.323,345.131 83.323,345.292 83.282 C 345.452 83.240,345.321 83.205,345.000 83.205 C 344.679 83.205,344.548 83.240,344.708 83.282 M154.667 84.083 C 154.262 84.496,153.968 84.833,154.014 84.833 C 154.060 84.833,154.428 84.496,154.833 84.083 C 155.238 83.671,155.532 83.333,155.486 83.333 C 155.440 83.333,155.072 83.671,154.667 84.083 M165.417 84.833 C 165.559 85.108,165.713 85.333,165.759 85.333 C 165.804 85.333,165.726 85.108,165.583 84.833 C 165.441 84.558,165.287 84.333,165.241 84.333 C 165.196 84.333,165.274 84.558,165.417 84.833 M230.906 84.875 L 230.417 85.417 230.958 84.927 C 231.463 84.471,231.577 84.333,231.448 84.333 C 231.419 84.333,231.175 84.577,230.906 84.875 M312.828 85.292 L 311.917 86.250 312.875 85.339 C 313.402 84.838,313.833 84.407,313.833 84.381 C 313.833 84.257,313.674 84.401,312.828 85.292 M263.906 85.208 L 263.417 85.750 263.958 85.260 C 264.256 84.991,264.500 84.748,264.500 84.719 C 264.500 84.590,264.362 84.703,263.906 85.208 M369.872 85.167 C 369.872 85.487,369.906 85.619,369.948 85.458 C 369.990 85.298,369.990 85.035,369.948 84.875 C 369.906 84.715,369.872 84.846,369.872 85.167 M374.872 85.167 C 374.872 85.487,374.906 85.619,374.948 85.458 C 374.990 85.298,374.990 85.035,374.948 84.875 C 374.906 84.715,374.872 84.846,374.872 85.167 M34.887 86.000 C 34.887 86.596,34.917 86.840,34.954 86.542 C 34.991 86.244,34.991 85.756,34.954 85.458 C 34.917 85.160,34.887 85.404,34.887 86.000 M192.234 85.192 C 192.163 85.307,192.188 85.340,192.295 85.274 C 192.394 85.213,192.509 85.295,192.551 85.456 C 192.610 85.680,192.633 85.660,192.647 85.375 C 192.668 84.976,192.432 84.872,192.234 85.192 M209.811 85.460 C 209.607 85.719,209.613 85.727,209.861 85.533 C 210.096 85.349,210.151 85.361,210.217 85.616 C 210.284 85.877,210.297 85.880,210.314 85.635 C 210.342 85.221,210.072 85.127,209.811 85.460 M294.740 85.708 L 294.250 86.250 294.792 85.760 C 295.297 85.304,295.410 85.167,295.281 85.167 C 295.252 85.167,295.009 85.410,294.740 85.708 M33.573 85.875 L 33.083 86.417 33.625 85.927 C 34.130 85.471,34.243 85.333,34.115 85.333 C 34.086 85.333,33.842 85.577,33.573 85.875 M46.906 86.708 L 46.417 87.250 46.958 86.760 C 47.463 86.304,47.577 86.167,47.448 86.167 C 47.419 86.167,47.175 86.410,46.906 86.708 M243.667 87.052 C 243.667 87.081,243.910 87.325,244.208 87.594 L 244.750 88.083 244.260 87.542 C 243.804 87.037,243.667 86.923,243.667 87.052 M59.368 88.922 C 59.076 89.515,58.872 90.000,58.916 90.000 C 59.028 90.000,60.035 87.980,59.961 87.905 C 59.927 87.872,59.660 88.329,59.368 88.922 M95.167 88.052 C 95.167 88.081,95.410 88.325,95.708 88.594 L 96.250 89.083 95.760 88.542 C 95.304 88.037,95.167 87.923,95.167 88.052 M112.667 88.583 C 112.978 88.904,113.270 89.167,113.315 89.167 C 113.361 89.167,113.144 88.904,112.833 88.583 C 112.522 88.263,112.230 88.000,112.185 88.000 C 112.139 88.000,112.356 88.263,112.667 88.583 M135.444 88.111 C 135.383 88.172,135.334 88.303,135.336 88.403 C 135.337 88.502,135.408 88.473,135.494 88.338 C 135.625 88.131,135.722 88.157,136.116 88.504 L 136.583 88.917 136.179 88.458 C 135.760 87.983,135.633 87.923,135.444 88.111 M279.333 88.583 C 279.644 88.904,279.936 89.167,279.982 89.167 C 280.028 89.167,279.811 88.904,279.500 88.583 C 279.189 88.263,278.897 88.000,278.851 88.000 C 278.805 88.000,279.022 88.263,279.333 88.583 M374.872 88.667 C 374.872 88.987,374.906 89.119,374.948 88.958 C 374.990 88.798,374.990 88.535,374.948 88.375 C 374.906 88.215,374.872 88.346,374.872 88.667 M38.455 90.287 C 38.750 90.324,39.275 90.324,39.621 90.288 C 39.967 90.252,39.725 90.222,39.083 90.221 C 38.442 90.221,38.159 90.250,38.455 90.287 M100.208 90.288 C 100.552 90.324,101.115 90.324,101.458 90.288 C 101.802 90.252,101.521 90.223,100.833 90.223 C 100.146 90.223,99.865 90.252,100.208 90.288 M117.129 90.289 C 117.521 90.324,118.121 90.324,118.463 90.288 C 118.804 90.252,118.483 90.223,117.750 90.224 C 117.017 90.224,116.737 90.254,117.129 90.289 M140.458 90.289 C 140.848 90.324,141.485 90.324,141.875 90.289 C 142.265 90.254,141.946 90.225,141.167 90.225 C 140.387 90.225,140.069 90.254,140.458 90.289 M175.292 90.290 C 175.865 90.323,176.802 90.323,177.375 90.290 C 177.948 90.258,177.479 90.231,176.333 90.231 C 175.188 90.231,174.719 90.258,175.292 90.290 M198.629 90.289 C 199.021 90.324,199.621 90.324,199.963 90.288 C 200.304 90.252,199.983 90.223,199.250 90.224 C 198.517 90.224,198.237 90.254,198.629 90.289 M216.797 90.290 C 217.282 90.324,218.032 90.323,218.464 90.289 C 218.896 90.255,218.500 90.227,217.583 90.228 C 216.667 90.228,216.313 90.256,216.797 90.290 M250.464 90.290 C 250.948 90.324,251.698 90.323,252.131 90.289 C 252.563 90.255,252.167 90.227,251.250 90.228 C 250.333 90.228,249.980 90.256,250.464 90.290 M283.796 90.289 C 284.188 90.324,284.788 90.324,285.129 90.288 C 285.471 90.252,285.150 90.223,284.417 90.224 C 283.683 90.224,283.404 90.254,283.796 90.289 M301.463 90.289 C 301.855 90.324,302.455 90.324,302.796 90.288 C 303.137 90.252,302.817 90.223,302.083 90.224 C 301.350 90.224,301.071 90.254,301.463 90.289 M321.963 90.289 C 322.355 90.324,322.955 90.324,323.296 90.288 C 323.637 90.252,323.317 90.223,322.583 90.224 C 321.850 90.224,321.571 90.254,321.963 90.289 M338.796 90.289 C 339.188 90.324,339.788 90.324,340.129 90.288 C 340.471 90.252,340.150 90.223,339.417 90.224 C 338.683 90.224,338.404 90.254,338.796 90.289 M363.828 96.792 L 362.917 97.750 363.875 96.839 C 364.765 95.993,364.910 95.833,364.786 95.833 C 364.760 95.833,364.329 96.265,363.828 96.792 M22.875 97.417 C 22.877 97.783,22.911 97.914,22.951 97.706 C 22.991 97.499,22.990 97.199,22.948 97.040 C 22.906 96.880,22.874 97.050,22.875 97.417 M28.396 99.083 C 28.396 100.092,28.424 100.483,28.457 99.952 C 28.490 99.422,28.490 98.597,28.456 98.119 C 28.422 97.641,28.395 98.075,28.396 99.083 M151.635 98.291 C 153.039 98.319,155.289 98.319,156.635 98.291 C 157.982 98.263,156.833 98.240,154.083 98.241 C 151.333 98.241,150.232 98.263,151.635 98.291 M141.708 98.453 C 141.960 98.491,142.373 98.491,142.625 98.453 C 142.877 98.415,142.671 98.383,142.167 98.383 C 141.662 98.383,141.456 98.415,141.708 98.453 M164.958 98.451 C 165.165 98.491,165.502 98.491,165.708 98.451 C 165.915 98.411,165.746 98.379,165.333 98.379 C 164.921 98.379,164.752 98.411,164.958 98.451 M135.628 98.621 C 135.928 98.658,136.378 98.657,136.628 98.619 C 136.878 98.581,136.633 98.551,136.083 98.552 C 135.533 98.553,135.328 98.584,135.628 98.621 M170.458 98.621 C 170.756 98.658,171.244 98.658,171.542 98.621 C 171.840 98.584,171.596 98.553,171.000 98.553 C 170.404 98.553,170.160 98.584,170.458 98.621 M175.125 98.784 C 175.331 98.824,175.669 98.824,175.875 98.784 C 176.081 98.745,175.912 98.712,175.500 98.712 C 175.088 98.712,174.919 98.745,175.125 98.784 M178.460 98.951 C 178.668 98.991,178.968 98.990,179.127 98.948 C 179.286 98.906,179.117 98.874,178.750 98.875 C 178.383 98.877,178.253 98.911,178.460 98.951 M127.127 99.118 C 127.334 99.158,127.634 99.156,127.794 99.115 C 127.953 99.073,127.783 99.040,127.417 99.042 C 127.050 99.044,126.920 99.078,127.127 99.118 M181.628 99.121 C 181.928 99.158,182.378 99.157,182.628 99.119 C 182.878 99.081,182.633 99.051,182.083 99.052 C 181.533 99.053,181.328 99.084,181.628 99.121 M184.875 99.282 C 185.035 99.323,185.298 99.323,185.458 99.282 C 185.619 99.240,185.487 99.205,185.167 99.205 C 184.846 99.205,184.715 99.240,184.875 99.282 M190.208 99.619 C 190.460 99.658,190.873 99.658,191.125 99.619 C 191.377 99.581,191.171 99.550,190.667 99.550 C 190.162 99.550,189.956 99.581,190.208 99.619 M197.460 100.118 C 197.668 100.158,197.968 100.156,198.127 100.115 C 198.286 100.073,198.117 100.040,197.750 100.042 C 197.383 100.044,197.253 100.078,197.460 100.118 M201.708 100.448 C 201.869 100.490,202.131 100.490,202.292 100.448 C 202.452 100.406,202.321 100.372,202.000 100.372 C 201.679 100.372,201.548 100.406,201.708 100.448 M203.708 100.615 C 203.869 100.657,204.131 100.657,204.292 100.615 C 204.452 100.573,204.321 100.539,204.000 100.539 C 203.679 100.539,203.548 100.573,203.708 100.615 M22.875 101.250 C 22.877 101.617,22.911 101.747,22.951 101.540 C 22.991 101.332,22.990 101.032,22.948 100.873 C 22.906 100.714,22.874 100.883,22.875 101.250 M207.542 100.948 C 207.702 100.990,207.965 100.990,208.125 100.948 C 208.285 100.906,208.154 100.872,207.833 100.872 C 207.512 100.872,207.381 100.906,207.542 100.948 M368.324 102.292 L 367.750 102.917 368.375 102.342 C 368.957 101.808,369.077 101.667,368.949 101.667 C 368.922 101.667,368.640 101.948,368.324 102.292 M217.875 101.948 C 218.035 101.990,218.298 101.990,218.458 101.948 C 218.619 101.906,218.487 101.872,218.167 101.872 C 217.846 101.872,217.715 101.906,217.875 101.948 M63.073 102.708 L 62.583 103.250 63.125 102.760 C 63.630 102.304,63.743 102.167,63.615 102.167 C 63.586 102.167,63.342 102.410,63.073 102.708 M50.573 103.042 L 50.083 103.583 50.625 103.094 C 51.130 102.638,51.243 102.500,51.115 102.500 C 51.086 102.500,50.842 102.744,50.573 103.042 M366.324 104.292 L 365.750 104.917 366.375 104.342 C 366.957 103.808,367.077 103.667,366.949 103.667 C 366.922 103.667,366.640 103.948,366.324 104.292 M49.158 104.625 L 48.583 105.250 49.208 104.676 C 49.790 104.141,49.910 104.000,49.783 104.000 C 49.755 104.000,49.474 104.281,49.158 104.625 M60.164 105.792 L 58.417 107.583 60.208 105.836 C 61.872 104.214,62.076 104.000,61.955 104.000 C 61.931 104.000,61.125 104.806,60.164 105.792 M31.333 107.250 C 31.644 107.571,31.936 107.833,31.982 107.833 C 32.028 107.833,31.811 107.571,31.500 107.250 C 31.189 106.929,30.897 106.667,30.851 106.667 C 30.805 106.667,31.022 106.929,31.333 107.250 M264.375 106.948 C 264.535 106.990,264.798 106.990,264.958 106.948 C 265.119 106.906,264.987 106.872,264.667 106.872 C 264.346 106.872,264.215 106.906,264.375 106.948 M269.542 107.448 C 269.702 107.490,269.965 107.490,270.125 107.448 C 270.285 107.406,270.154 107.372,269.833 107.372 C 269.512 107.372,269.381 107.406,269.542 107.448 M275.208 107.948 C 275.369 107.990,275.631 107.990,275.792 107.948 C 275.952 107.906,275.821 107.872,275.500 107.872 C 275.179 107.872,275.048 107.906,275.208 107.948 M279.375 108.282 C 279.535 108.323,279.798 108.323,279.958 108.282 C 280.119 108.240,279.987 108.205,279.667 108.205 C 279.346 108.205,279.215 108.240,279.375 108.282 M281.960 108.451 C 282.168 108.491,282.468 108.490,282.627 108.448 C 282.786 108.406,282.617 108.374,282.250 108.375 C 281.883 108.377,281.753 108.411,281.960 108.451 M286.711 108.786 C 286.964 108.825,287.339 108.824,287.544 108.784 C 287.749 108.744,287.542 108.713,287.083 108.714 C 286.625 108.716,286.457 108.748,286.711 108.786 M334.042 108.782 C 334.202 108.823,334.465 108.823,334.625 108.782 C 334.785 108.740,334.654 108.705,334.333 108.705 C 334.012 108.705,333.881 108.740,334.042 108.782 M289.960 108.951 C 290.168 108.991,290.468 108.990,290.627 108.948 C 290.786 108.906,290.617 108.874,290.250 108.875 C 289.883 108.877,289.753 108.911,289.960 108.951 M331.794 108.951 C 332.001 108.991,332.301 108.990,332.460 108.948 C 332.620 108.906,332.450 108.874,332.083 108.875 C 331.717 108.877,331.586 108.911,331.794 108.951 M25.833 109.052 C 25.833 109.081,26.077 109.325,26.375 109.594 L 26.917 110.083 26.427 109.542 C 25.971 109.037,25.833 108.923,25.833 109.052 M292.958 109.118 C 293.165 109.157,293.502 109.157,293.708 109.118 C 293.915 109.078,293.746 109.045,293.333 109.045 C 292.921 109.045,292.752 109.078,292.958 109.118 M329.127 109.118 C 329.334 109.158,329.634 109.156,329.794 109.115 C 329.953 109.073,329.783 109.040,329.417 109.042 C 329.050 109.044,328.920 109.078,329.127 109.118 M296.208 109.288 C 296.552 109.324,297.115 109.324,297.458 109.288 C 297.802 109.252,297.521 109.223,296.833 109.223 C 296.146 109.223,295.865 109.252,296.208 109.288 M325.463 109.289 C 325.855 109.324,326.455 109.324,326.796 109.288 C 327.137 109.252,326.817 109.223,326.083 109.224 C 325.350 109.224,325.071 109.254,325.463 109.289 M301.292 109.454 C 301.590 109.491,302.077 109.491,302.375 109.454 C 302.673 109.417,302.429 109.387,301.833 109.387 C 301.237 109.387,300.994 109.417,301.292 109.454 M320.625 109.454 C 320.923 109.491,321.410 109.491,321.708 109.454 C 322.006 109.417,321.762 109.387,321.167 109.387 C 320.571 109.387,320.327 109.417,320.625 109.454 M309.875 109.624 C 310.952 109.653,312.715 109.653,313.792 109.624 C 314.869 109.595,313.987 109.572,311.833 109.572 C 309.679 109.572,308.798 109.595,309.875 109.624 M37.796 109.789 C 38.188 109.824,38.788 109.824,39.129 109.788 C 39.471 109.752,39.150 109.723,38.417 109.724 C 37.683 109.724,37.404 109.754,37.796 109.789 M39.632 114.957 C 40.208 114.990,41.108 114.989,41.632 114.956 C 42.155 114.923,41.683 114.897,40.583 114.897 C 39.483 114.897,39.055 114.924,39.632 114.957 M195.298 118.457 C 195.875 118.490,196.775 118.489,197.298 118.456 C 197.822 118.423,197.350 118.397,196.250 118.397 C 195.150 118.397,194.722 118.424,195.298 118.457 M214.458 118.456 C 214.940 118.490,215.727 118.490,216.208 118.456 C 216.690 118.423,216.296 118.395,215.333 118.395 C 214.371 118.395,213.977 118.423,214.458 118.456 M187.631 118.623 C 188.115 118.657,188.865 118.656,189.297 118.622 C 189.730 118.588,189.333 118.560,188.417 118.561 C 187.500 118.561,187.146 118.589,187.631 118.623 M222.965 118.624 C 223.541 118.656,224.441 118.656,224.965 118.623 C 225.488 118.590,225.017 118.563,223.917 118.564 C 222.817 118.564,222.388 118.591,222.965 118.624 M229.960 118.785 C 230.168 118.824,230.468 118.823,230.627 118.781 C 230.786 118.739,230.617 118.707,230.250 118.709 C 229.883 118.711,229.753 118.745,229.960 118.785 M180.795 118.954 C 181.094 118.991,181.544 118.990,181.795 118.952 C 182.045 118.914,181.800 118.884,181.250 118.885 C 180.700 118.886,180.495 118.917,180.795 118.954 M234.380 118.956 C 234.818 118.990,235.493 118.990,235.880 118.955 C 236.267 118.920,235.908 118.892,235.083 118.892 C 234.258 118.893,233.942 118.922,234.380 118.956 M177.792 119.118 C 177.998 119.157,178.335 119.157,178.542 119.118 C 178.748 119.078,178.579 119.045,178.167 119.045 C 177.754 119.045,177.585 119.078,177.792 119.118 M240.125 119.122 C 240.515 119.157,241.152 119.157,241.542 119.122 C 241.931 119.087,241.612 119.058,240.833 119.058 C 240.054 119.058,239.735 119.087,240.125 119.122 M175.542 119.282 C 175.702 119.323,175.965 119.323,176.125 119.282 C 176.285 119.240,176.154 119.205,175.833 119.205 C 175.512 119.205,175.381 119.240,175.542 119.282 M245.127 119.285 C 245.334 119.324,245.634 119.323,245.794 119.281 C 245.953 119.239,245.783 119.207,245.417 119.209 C 245.050 119.211,244.920 119.245,245.127 119.285 M173.044 119.453 C 173.297 119.491,173.672 119.490,173.877 119.451 C 174.082 119.411,173.875 119.380,173.417 119.381 C 172.958 119.382,172.791 119.415,173.044 119.453 M249.208 119.456 C 249.644 119.490,250.356 119.490,250.792 119.456 C 251.227 119.422,250.871 119.393,250.000 119.393 C 249.129 119.393,248.773 119.422,249.208 119.456 M254.208 119.619 C 254.460 119.658,254.873 119.658,255.125 119.619 C 255.377 119.581,255.171 119.550,254.667 119.550 C 254.162 119.550,253.956 119.581,254.208 119.619 M258.042 119.786 C 258.294 119.824,258.706 119.824,258.958 119.786 C 259.210 119.748,259.004 119.717,258.500 119.717 C 257.996 119.717,257.790 119.748,258.042 119.786 M167.375 119.948 C 167.535 119.990,167.798 119.990,167.958 119.948 C 168.119 119.906,167.987 119.872,167.667 119.872 C 167.346 119.872,167.215 119.906,167.375 119.948 M262.296 119.956 C 262.688 119.991,263.288 119.990,263.629 119.954 C 263.971 119.919,263.650 119.890,262.917 119.890 C 262.183 119.891,261.904 119.920,262.296 119.956 M266.877 120.120 C 267.131 120.158,267.506 120.157,267.711 120.117 C 267.916 120.078,267.708 120.046,267.250 120.048 C 266.792 120.049,266.624 120.081,266.877 120.120 M270.542 120.286 C 270.794 120.324,271.206 120.324,271.458 120.286 C 271.710 120.248,271.504 120.217,271.000 120.217 C 270.496 120.217,270.290 120.248,270.542 120.286 M162.542 120.448 C 162.702 120.490,162.965 120.490,163.125 120.448 C 163.285 120.406,163.154 120.372,162.833 120.372 C 162.512 120.372,162.381 120.406,162.542 120.448 M274.796 120.456 C 275.188 120.491,275.788 120.490,276.129 120.454 C 276.471 120.419,276.150 120.390,275.417 120.390 C 274.683 120.391,274.404 120.420,274.796 120.456 M318.460 120.451 C 318.668 120.491,318.968 120.490,319.127 120.448 C 319.286 120.406,319.117 120.374,318.750 120.375 C 318.383 120.377,318.253 120.411,318.460 120.451 M279.461 120.621 C 279.761 120.658,280.211 120.657,280.461 120.619 C 280.712 120.581,280.467 120.551,279.917 120.552 C 279.367 120.553,279.162 120.584,279.461 120.621 M316.208 120.615 C 316.369 120.657,316.631 120.657,316.792 120.615 C 316.952 120.573,316.821 120.539,316.500 120.539 C 316.179 120.539,316.048 120.573,316.208 120.615 M284.375 120.789 C 284.810 120.824,285.523 120.824,285.958 120.789 C 286.394 120.755,286.037 120.727,285.167 120.727 C 284.296 120.727,283.940 120.755,284.375 120.789 M313.375 120.786 C 313.627 120.824,314.040 120.824,314.292 120.786 C 314.544 120.748,314.337 120.717,313.833 120.717 C 313.329 120.717,313.123 120.748,313.375 120.786 M291.534 120.957 C 292.149 120.989,293.199 120.989,293.868 120.957 C 294.536 120.926,294.033 120.899,292.750 120.899 C 291.467 120.899,290.920 120.925,291.534 120.957 M308.792 120.955 C 309.181 120.990,309.819 120.990,310.208 120.955 C 310.598 120.920,310.279 120.892,309.500 120.892 C 308.721 120.892,308.402 120.920,308.792 120.955 M300.217 121.124 C 301.116 121.154,302.541 121.154,303.384 121.124 C 304.227 121.094,303.492 121.069,301.750 121.069 C 300.008 121.070,299.318 121.094,300.217 121.124 M65.740 122.042 L 65.250 122.583 65.792 122.094 C 66.297 121.638,66.410 121.500,66.281 121.500 C 66.252 121.500,66.009 121.744,65.740 122.042 M63.910 123.708 L 63.083 124.583 63.958 123.756 C 64.440 123.301,64.833 122.908,64.833 122.881 C 64.833 122.757,64.679 122.895,63.910 123.708 M60.077 127.542 L 59.250 128.417 60.125 127.590 C 60.606 127.135,61.000 126.741,61.000 126.715 C 61.000 126.590,60.846 126.729,60.077 127.542 M58.573 129.208 L 58.083 129.750 58.625 129.260 C 59.130 128.804,59.243 128.667,59.115 128.667 C 59.086 128.667,58.842 128.910,58.573 129.208 M68.294 132.285 C 68.501 132.324,68.801 132.323,68.960 132.281 C 69.120 132.239,68.950 132.207,68.583 132.209 C 68.217 132.211,68.086 132.245,68.294 132.285 M73.292 132.284 C 73.498 132.324,73.835 132.324,74.042 132.284 C 74.248 132.245,74.079 132.212,73.667 132.212 C 73.254 132.212,73.085 132.245,73.292 132.284 M66.208 132.448 C 66.369 132.490,66.631 132.490,66.792 132.448 C 66.952 132.406,66.821 132.372,66.500 132.372 C 66.179 132.372,66.048 132.406,66.208 132.448 M75.542 132.448 C 75.702 132.490,75.965 132.490,76.125 132.448 C 76.285 132.406,76.154 132.372,75.833 132.372 C 75.512 132.372,75.381 132.406,75.542 132.448 M91.833 138.917 C 92.144 139.237,92.436 139.500,92.482 139.500 C 92.528 139.500,92.311 139.237,92.000 138.917 C 91.689 138.596,91.397 138.333,91.351 138.333 C 91.305 138.333,91.522 138.596,91.833 138.917 M97.909 143.708 L 97.250 144.417 97.958 143.758 C 98.617 143.145,98.743 143.000,98.617 143.000 C 98.590 143.000,98.271 143.319,97.909 143.708 " stroke="none" fill="#66b7e0" fill-rule="evenodd"></path><path id="path2" d="M134.083 15.645 C 133.296 15.788,132.000 16.340,132.000 16.532 C 132.000 16.606,131.921 16.667,131.825 16.667 C 131.659 16.667,131.320 16.991,130.583 17.858 C 130.400 18.074,130.102 18.587,129.921 19.000 C 129.740 19.412,129.551 19.787,129.500 19.833 C 129.450 19.879,129.149 20.254,128.831 20.667 C 127.396 22.533,123.636 25.083,121.833 25.413 C 121.604 25.454,121.117 25.562,120.750 25.652 C 116.490 26.695,109.522 26.690,103.153 25.638 C 102.550 25.539,101.913 25.445,101.737 25.429 C 101.341 25.395,99.723 25.054,98.500 24.747 C 97.996 24.620,97.058 24.395,96.417 24.247 C 95.775 24.099,94.957 23.901,94.598 23.807 C 94.240 23.714,93.827 23.612,93.681 23.582 C 93.371 23.517,92.058 23.149,90.417 22.668 C 89.775 22.479,89.136 22.297,88.996 22.263 C 88.603 22.166,85.830 21.342,85.083 21.101 C 84.717 20.982,83.967 20.751,83.417 20.587 C 82.867 20.423,82.117 20.195,81.750 20.079 C 81.383 19.963,80.746 19.777,80.333 19.667 C 79.921 19.556,79.283 19.370,78.917 19.254 C 78.550 19.137,77.762 18.912,77.167 18.752 C 76.571 18.593,75.746 18.363,75.333 18.242 C 74.173 17.902,72.675 17.531,71.667 17.335 C 71.162 17.238,70.225 17.048,69.583 16.915 C 66.103 16.191,61.421 15.946,58.750 16.349 C 55.255 16.877,53.328 17.348,51.318 18.170 C 44.508 20.952,39.619 25.954,37.529 32.279 C 32.606 47.179,46.706 59.946,60.583 53.154 C 63.882 51.540,66.249 49.440,68.458 46.167 C 68.922 45.479,69.417 44.654,69.557 44.333 C 69.698 44.012,69.996 43.337,70.220 42.833 C 70.613 41.950,71.033 40.627,71.254 39.583 C 71.460 38.605,71.526 35.734,71.365 34.750 C 71.161 33.509,71.071 33.562,72.525 34.082 C 73.199 34.323,73.825 34.541,73.917 34.568 C 74.008 34.594,74.271 34.694,74.500 34.790 C 74.729 34.886,75.254 35.092,75.667 35.248 C 76.079 35.404,76.567 35.596,76.750 35.676 C 76.933 35.756,77.721 36.082,78.500 36.400 C 79.279 36.718,80.142 37.086,80.417 37.219 C 80.692 37.351,81.310 37.631,81.792 37.842 C 82.867 38.314,82.878 38.208,81.624 39.440 C 80.155 40.884,79.031 42.091,78.075 43.250 C 77.621 43.800,77.166 44.325,77.064 44.417 C 76.962 44.508,76.553 45.033,76.156 45.583 C 75.758 46.133,75.346 46.672,75.239 46.781 C 75.133 46.889,74.605 47.639,74.066 48.447 C 73.527 49.256,72.994 50.013,72.882 50.131 C 72.489 50.545,69.527 55.419,68.101 58.000 C 67.421 59.229,62.497 69.095,61.113 72.000 C 60.610 73.054,59.547 75.267,58.750 76.917 C 57.954 78.567,57.031 80.508,56.700 81.232 C 56.009 82.743,55.925 82.698,56.143 80.937 C 57.221 72.253,49.345 66.969,39.250 69.605 C 36.039 70.443,30.333 73.167,30.333 73.860 C 30.333 73.937,30.240 74.000,30.125 74.000 C 29.148 74.000,23.901 79.679,21.887 82.917 C 20.841 84.597,18.994 88.224,19.020 88.546 C 19.022 88.566,18.936 88.808,18.828 89.083 C 18.639 89.569,18.162 91.081,18.092 91.417 C 18.073 91.508,17.973 91.883,17.870 92.250 C 14.500 104.190,19.314 114.665,30.333 119.371 C 34.322 121.075,42.180 121.425,47.653 120.142 C 51.528 119.235,57.368 116.245,60.583 113.523 C 61.042 113.135,61.754 112.540,62.167 112.201 C 64.587 110.211,68.693 105.695,71.203 102.264 C 71.544 101.798,71.897 101.330,71.987 101.224 C 72.423 100.711,74.396 97.759,75.620 95.788 C 76.374 94.576,77.056 93.505,77.137 93.409 C 77.217 93.313,77.313 93.163,77.350 93.076 C 77.387 92.988,77.911 92.092,78.516 91.083 C 79.120 90.075,79.879 88.759,80.203 88.159 C 80.527 87.559,81.021 86.659,81.302 86.159 C 82.848 83.399,85.987 77.172,91.263 66.396 L 93.232 62.375 93.715 63.104 C 93.981 63.506,94.389 63.984,94.621 64.166 L 95.043 64.498 94.501 65.874 C 94.204 66.631,93.865 67.475,93.749 67.750 C 93.632 68.025,93.219 69.037,92.830 70.000 C 92.441 70.962,91.908 72.219,91.645 72.792 C 91.382 73.365,91.167 73.880,91.167 73.935 C 91.167 73.991,90.837 74.797,90.434 75.727 C 89.628 77.587,89.193 78.777,88.993 79.667 C 88.921 79.987,88.810 80.438,88.747 80.667 C 88.219 82.587,88.274 87.507,88.829 88.062 C 88.923 88.156,89.000 88.413,89.000 88.633 C 89.000 88.853,89.304 89.617,89.675 90.331 C 92.638 96.025,100.870 97.837,108.639 94.505 C 109.842 93.989,109.869 93.985,110.306 94.281 C 110.550 94.447,110.956 94.673,111.208 94.783 C 111.895 95.084,111.769 95.259,110.708 95.479 C 110.181 95.589,109.188 95.795,108.500 95.937 C 107.415 96.161,103.583 97.060,101.833 97.501 C 100.610 97.809,97.702 98.643,96.583 99.006 C 92.007 100.492,89.656 101.308,89.417 101.491 C 89.325 101.561,89.100 101.661,88.917 101.712 C 88.323 101.879,86.443 102.613,85.417 103.079 C 82.013 104.623,76.728 107.238,76.500 107.491 C 76.454 107.542,75.929 107.839,75.333 108.152 C 72.687 109.541,65.473 114.482,63.783 116.063 C 63.526 116.303,63.251 116.500,63.172 116.500 C 63.093 116.500,63.003 116.563,62.972 116.639 C 62.942 116.716,62.354 117.259,61.667 117.846 C 59.776 119.461,56.658 122.549,55.033 124.415 C 54.236 125.331,53.409 126.269,53.197 126.499 C 52.746 126.986,50.816 129.543,49.988 130.750 C 49.674 131.208,49.379 131.621,49.333 131.667 C 47.769 133.231,47.764 136.974,49.324 139.127 C 50.881 141.276,53.378 141.809,56.821 140.727 C 57.882 140.394,58.975 140.063,59.250 139.993 C 59.525 139.922,60.350 139.704,61.083 139.508 C 62.730 139.068,64.623 138.695,65.833 138.571 C 66.337 138.519,67.237 138.409,67.833 138.325 C 71.734 137.778,78.261 138.550,82.000 140.001 C 82.504 140.196,82.992 140.373,83.083 140.394 C 85.507 140.942,89.684 144.657,91.111 147.536 C 91.540 148.400,91.664 148.578,92.301 149.250 C 93.772 150.802,96.185 151.403,98.304 150.744 C 99.567 150.351,100.254 149.864,102.500 147.773 C 102.912 147.389,103.625 146.776,104.083 146.412 C 104.542 146.048,104.954 145.706,105.000 145.652 C 105.046 145.598,105.646 145.143,106.333 144.639 C 110.238 141.781,115.354 138.899,120.333 136.754 C 121.112 136.418,121.900 136.079,122.083 136.000 C 124.124 135.121,130.252 132.962,132.417 132.359 C 132.783 132.257,133.833 131.955,134.750 131.688 C 136.798 131.091,139.774 130.362,143.333 129.587 C 144.021 129.437,145.071 129.208,145.667 129.077 C 146.684 128.853,148.855 128.453,150.167 128.246 C 150.487 128.196,150.862 128.125,151.000 128.088 C 151.137 128.052,151.587 127.979,152.000 127.927 C 152.412 127.875,152.938 127.793,153.167 127.744 C 153.396 127.696,154.221 127.581,155.000 127.490 C 155.779 127.399,156.548 127.284,156.709 127.234 C 156.869 127.185,157.582 127.080,158.292 127.001 C 159.002 126.922,160.258 126.777,161.083 126.677 C 164.301 126.289,169.808 125.736,171.917 125.589 C 172.558 125.544,173.946 125.435,175.000 125.346 C 183.151 124.658,197.294 124.260,209.250 124.382 C 219.514 124.487,234.639 124.797,234.815 124.905 C 234.876 124.943,237.024 125.021,239.588 125.078 C 242.152 125.135,245.713 125.257,247.500 125.349 C 249.287 125.441,252.137 125.550,253.833 125.590 C 255.529 125.631,258.304 125.739,260.000 125.830 C 261.696 125.922,264.396 126.034,266.000 126.081 C 267.604 126.127,270.717 126.238,272.917 126.328 C 284.669 126.807,289.805 126.917,300.500 126.917 C 311.976 126.917,315.104 126.819,320.417 126.294 C 321.517 126.185,322.476 126.113,322.548 126.133 C 322.620 126.154,323.445 126.062,324.381 125.930 C 325.317 125.797,326.496 125.644,327.000 125.589 C 330.110 125.254,339.856 123.467,341.046 123.014 C 341.267 122.930,341.665 122.825,341.932 122.781 C 342.356 122.710,343.546 122.388,346.341 121.587 C 346.758 121.467,347.770 121.133,348.591 120.843 C 349.412 120.553,350.533 120.164,351.083 119.978 C 354.566 118.798,360.052 116.156,363.531 113.984 C 367.158 111.719,372.414 107.224,374.010 105.022 C 374.234 104.713,374.548 104.340,374.708 104.193 C 374.869 104.046,375.000 103.838,375.000 103.731 C 375.000 103.623,375.113 103.492,375.250 103.440 C 375.387 103.387,375.500 103.235,375.500 103.102 C 375.500 102.970,375.563 102.836,375.639 102.806 C 376.893 102.304,379.879 95.238,380.664 90.917 C 382.212 82.387,378.915 74.012,371.917 68.696 C 369.912 67.173,367.038 66.001,364.250 65.571 C 361.759 65.186,358.298 65.395,357.172 65.997 C 356.986 66.097,356.833 66.142,356.833 66.098 C 356.833 66.053,356.563 66.130,356.232 66.268 C 355.353 66.635,355.354 66.633,356.759 63.220 C 357.469 61.495,358.456 59.071,358.951 57.833 C 359.446 56.596,359.933 55.396,360.032 55.167 C 360.805 53.373,361.007 52.764,361.500 50.725 C 363.376 42.965,360.472 37.582,353.500 35.898 C 351.105 35.319,345.261 35.608,342.917 36.421 C 340.980 37.092,340.085 37.978,338.973 40.325 C 338.514 41.292,338.001 42.357,337.831 42.691 C 336.791 44.743,336.804 47.226,337.863 48.958 L 338.194 49.500 336.536 49.500 C 335.625 49.500,334.475 49.582,333.981 49.682 C 333.487 49.782,332.863 49.895,332.594 49.932 C 332.110 50.000,331.619 50.140,330.167 50.627 C 329.493 50.852,328.940 51.085,327.000 51.958 C 326.416 52.221,324.071 53.611,323.387 54.099 C 323.013 54.366,322.982 53.887,323.343 53.417 C 324.417 52.016,324.980 44.964,324.199 42.687 C 322.884 38.857,320.022 36.586,315.500 35.783 C 314.105 35.535,309.947 35.504,309.000 35.734 C 308.771 35.790,308.096 35.912,307.500 36.006 C 304.669 36.453,303.089 37.510,301.969 39.706 C 299.067 45.398,298.924 47.492,301.275 49.910 C 302.014 50.670,302.018 50.597,301.128 52.625 C 300.402 54.283,300.404 54.279,299.912 53.940 C 299.731 53.815,299.208 53.619,298.750 53.503 L 297.917 53.292 297.875 52.521 C 297.782 50.797,297.630 49.910,297.244 48.833 C 294.772 41.949,284.930 40.882,278.870 46.841 C 277.912 47.783,276.833 49.050,276.833 49.232 C 276.833 49.296,276.702 49.490,276.542 49.664 C 276.381 49.839,275.950 50.567,275.584 51.282 C 275.218 51.998,274.904 52.610,274.887 52.642 C 274.869 52.674,274.607 52.513,274.303 52.284 C 273.052 51.340,270.615 50.164,269.417 49.925 C 269.325 49.907,268.808 49.796,268.267 49.679 C 264.389 48.839,258.124 49.844,253.677 52.020 L 251.604 53.035 251.317 52.642 C 249.564 50.248,248.655 50.000,241.609 50.000 C 234.386 50.000,232.786 50.479,231.483 53.034 C 231.074 53.835,231.067 53.834,230.077 52.820 C 228.898 51.614,225.159 49.563,224.798 49.924 C 224.763 49.959,224.370 49.878,223.924 49.744 C 222.963 49.455,217.597 49.399,216.666 49.669 C 216.345 49.761,215.789 49.875,215.430 49.921 C 214.442 50.047,213.247 50.436,212.356 50.920 L 211.557 51.355 210.952 50.999 C 210.361 50.650,208.167 49.793,208.167 49.910 C 208.167 49.943,207.773 49.865,207.292 49.737 C 206.044 49.405,201.019 49.416,199.534 49.755 C 198.920 49.895,198.042 50.093,197.583 50.194 C 196.633 50.404,195.733 50.825,195.255 51.284 C 194.933 51.593,194.912 51.589,194.005 51.043 C 193.312 50.625,191.250 49.824,191.250 49.972 C 191.250 49.983,190.882 49.882,190.432 49.746 C 188.737 49.236,182.620 49.496,180.417 50.171 C 178.322 50.813,177.699 51.051,175.417 52.084 C 173.835 52.800,170.898 54.866,169.196 56.461 C 168.608 57.011,168.000 56.905,168.000 56.252 C 168.000 55.965,166.745 54.199,165.942 53.357 C 164.438 51.780,162.157 50.423,160.167 49.924 C 158.963 49.622,158.335 49.508,157.857 49.504 C 157.393 49.501,157.317 49.450,157.411 49.208 C 157.645 48.605,157.713 45.056,157.509 44.149 C 157.252 43.013,156.815 41.609,156.684 41.500 C 156.629 41.453,156.409 41.091,156.196 40.695 C 155.649 39.677,154.915 38.829,153.917 38.061 C 151.270 36.026,146.437 35.080,141.958 35.720 L 140.999 35.857 141.658 34.538 C 142.628 32.593,143.715 29.770,144.078 28.250 C 145.533 22.167,145.063 20.754,140.583 17.745 C 137.511 15.681,136.207 15.260,134.083 15.645 M137.108 22.442 C 138.011 23.052,138.810 23.603,138.883 23.667 C 139.079 23.837,138.413 26.915,137.813 28.615 C 135.354 35.583,130.632 40.404,124.136 42.577 C 117.687 44.735,112.005 44.165,102.390 40.396 C 100.099 39.498,100.420 39.458,99.235 40.792 C 96.705 43.641,95.308 45.812,91.544 52.750 C 91.146 53.483,89.576 56.596,88.056 59.667 C 77.041 81.917,76.708 82.565,73.376 88.250 C 61.279 108.885,49.664 117.080,35.917 114.677 C 31.912 113.977,28.988 112.535,26.728 110.145 C 16.085 98.888,28.130 74.907,44.488 74.786 C 49.096 74.752,51.304 77.480,50.066 81.678 C 47.524 90.300,34.882 93.954,34.827 86.083 L 34.818 84.750 33.978 85.667 C 27.920 92.277,26.788 102.467,31.589 107.185 C 34.989 110.527,41.551 110.468,46.191 107.052 C 51.593 103.076,55.933 96.300,64.160 79.000 C 64.749 77.762,66.049 75.063,67.050 73.000 C 68.051 70.938,69.320 68.313,69.871 67.167 C 73.195 60.254,78.013 52.351,81.378 48.292 C 82.992 46.345,83.232 46.084,85.491 43.827 C 88.438 40.882,91.029 39.039,94.061 37.731 C 94.509 37.538,94.810 37.339,94.730 37.289 C 94.649 37.240,93.158 36.563,91.417 35.786 C 89.675 35.009,87.663 34.102,86.946 33.770 C 86.229 33.438,85.619 33.167,85.591 33.167 C 85.563 33.167,84.762 32.799,83.812 32.349 C 82.861 31.899,80.921 31.069,79.500 30.505 C 78.079 29.940,76.654 29.373,76.333 29.245 C 74.356 28.453,70.804 27.381,67.577 26.602 C 61.655 25.171,55.806 26.029,51.752 28.922 C 44.094 34.386,44.645 44.695,52.609 44.971 C 54.793 45.046,55.464 44.849,54.158 44.514 C 49.203 43.244,52.484 33.152,58.500 31.160 C 63.886 29.376,67.396 34.925,64.675 40.924 C 61.729 47.422,54.876 50.656,49.012 48.314 C 37.777 43.827,41.357 27.415,54.500 23.158 C 61.567 20.869,65.789 21.356,82.738 26.415 C 100.996 31.864,109.926 33.159,119.496 31.743 C 126.400 30.722,132.333 27.009,134.750 22.198 C 135.287 21.129,135.140 21.114,137.108 22.442 M147.750 41.508 C 152.679 42.786,153.062 46.029,149.336 54.917 C 148.721 56.383,148.225 57.595,148.234 57.609 C 148.243 57.623,149.075 57.230,150.083 56.736 C 161.036 51.369,167.453 60.087,161.998 72.923 C 157.848 82.689,151.438 88.732,143.794 90.084 C 140.430 90.679,137.999 90.235,136.323 88.721 L 135.666 88.127 135.416 88.725 C 135.279 89.054,135.167 89.400,135.167 89.495 C 135.167 89.609,133.493 89.667,130.167 89.667 C 127.417 89.667,125.167 89.638,125.167 89.604 C 125.167 89.570,125.353 89.120,125.581 88.604 C 125.809 88.088,125.963 87.667,125.922 87.667 C 125.881 87.667,125.488 87.877,125.049 88.133 C 119.195 91.550,112.967 90.936,111.417 86.790 C 111.087 85.908,111.226 85.889,109.833 87.014 C 103.751 91.928,95.382 91.292,94.236 85.828 C 93.730 83.416,94.114 81.833,96.660 75.833 C 98.921 70.504,101.867 63.133,102.032 62.393 C 102.365 60.900,101.561 60.042,99.683 59.884 C 99.032 59.830,98.500 59.759,98.500 59.728 C 98.500 59.351,100.365 55.846,100.605 55.772 C 105.511 54.251,110.585 55.397,111.660 58.269 C 112.586 60.746,112.095 62.594,107.583 73.583 C 104.216 81.784,104.199 81.850,105.169 82.718 C 106.339 83.762,108.969 82.950,111.208 80.851 C 111.552 80.529,111.834 80.187,111.834 80.091 C 111.835 79.995,112.179 79.092,112.599 78.083 C 113.384 76.202,116.549 68.496,119.752 60.667 C 120.746 58.237,121.630 56.156,121.717 56.042 C 121.893 55.808,131.588 55.727,131.716 55.958 C 131.754 56.027,131.084 57.771,130.227 59.833 C 128.490 64.014,127.668 66.004,125.612 71.000 C 124.839 72.879,123.598 75.896,122.853 77.705 C 121.148 81.848,121.120 82.367,122.574 82.922 C 124.133 83.517,126.782 82.351,128.623 80.260 C 129.372 79.409,129.492 79.139,133.000 70.417 C 135.849 63.332,136.228 62.404,138.176 57.750 C 142.806 46.688,142.880 46.000,139.432 46.000 C 138.189 46.000,138.184 45.935,139.284 43.795 L 140.250 41.917 141.583 41.643 C 143.119 41.328,146.750 41.249,147.750 41.508 M315.049 41.596 C 317.791 42.307,318.948 43.808,318.894 46.583 C 318.847 48.928,318.229 50.692,313.169 62.917 C 308.881 73.275,305.833 81.033,305.833 81.589 C 305.833 84.056,309.628 83.534,312.514 80.671 C 314.040 79.157,314.560 78.302,315.064 76.473 C 317.383 68.068,323.215 60.301,329.602 57.111 C 334.743 54.544,340.596 54.549,342.471 57.123 L 342.788 57.558 343.129 56.654 C 343.316 56.157,344.114 54.187,344.901 52.276 C 346.954 47.296,346.835 46.189,344.230 46.033 C 343.599 45.996,343.024 45.910,342.952 45.843 C 342.816 45.716,344.231 42.392,344.562 42.063 C 345.233 41.394,350.624 41.111,352.545 41.644 C 356.930 42.860,357.363 46.240,354.135 54.068 C 353.678 55.177,352.907 57.058,352.423 58.250 C 351.938 59.442,350.923 61.917,350.167 63.750 C 349.411 65.583,348.396 68.058,347.912 69.250 C 347.428 70.442,346.569 72.542,346.002 73.917 C 342.812 81.660,342.737 81.942,343.661 82.720 C 344.646 83.548,346.428 83.217,348.583 81.805 C 349.719 81.061,351.783 78.656,351.575 78.319 C 351.307 77.886,353.640 74.698,355.094 73.510 C 362.495 67.461,373.407 73.566,374.961 84.626 C 376.792 97.646,363.610 110.841,343.352 116.267 C 338.929 117.451,337.727 117.720,331.500 118.921 C 319.698 121.195,304.709 121.615,275.000 120.504 C 262.319 120.029,253.819 119.700,249.167 119.501 C 246.921 119.406,242.608 119.255,239.583 119.167 C 236.558 119.079,232.096 118.931,229.667 118.838 C 216.364 118.331,195.861 118.284,186.333 118.740 C 141.406 120.891,114.099 128.763,97.417 144.373 C 96.517 145.214,96.459 145.192,95.663 143.698 C 92.730 138.194,86.036 134.185,77.333 132.720 C 75.139 132.350,67.718 132.295,65.500 132.632 C 62.169 133.137,57.945 134.128,55.432 134.994 C 53.766 135.568,53.708 135.504,54.646 134.113 C 59.476 126.956,67.714 119.425,76.500 114.136 C 80.798 111.549,88.422 107.833,91.500 106.825 C 91.729 106.750,92.554 106.453,93.333 106.163 C 94.112 105.874,95.537 105.383,96.500 105.073 C 97.462 104.762,98.587 104.395,99.000 104.259 C 99.412 104.122,100.837 103.717,102.167 103.358 C 108.519 101.642,113.268 100.698,120.667 99.679 C 132.310 98.076,158.492 97.741,180.500 98.914 C 189.149 99.375,191.063 99.486,193.250 99.656 C 194.442 99.749,196.954 99.941,198.833 100.084 C 200.713 100.226,203.075 100.421,204.083 100.516 C 205.092 100.612,206.742 100.757,207.750 100.839 C 208.758 100.920,210.783 101.104,212.250 101.247 C 213.717 101.389,215.704 101.578,216.667 101.665 C 217.629 101.753,219.092 101.900,219.917 101.991 C 220.742 102.083,222.542 102.274,223.917 102.416 C 225.292 102.558,227.092 102.748,227.917 102.838 C 231.527 103.233,232.678 103.356,234.167 103.504 C 235.037 103.590,236.275 103.733,236.917 103.821 C 237.558 103.910,239.171 104.102,240.500 104.248 C 241.829 104.395,243.817 104.619,244.917 104.747 C 246.017 104.875,247.742 105.064,248.750 105.167 C 249.758 105.269,251.521 105.458,252.667 105.586 C 253.813 105.715,255.912 105.938,257.333 106.083 C 258.754 106.228,260.592 106.423,261.417 106.517 C 262.242 106.611,263.704 106.756,264.667 106.840 C 265.629 106.924,267.654 107.108,269.167 107.251 C 270.679 107.393,272.742 107.577,273.750 107.659 C 274.758 107.740,276.521 107.887,277.667 107.984 C 296.565 109.583,317.002 109.903,332.083 108.834 C 338.884 108.352,346.602 106.667,351.083 104.687 C 351.267 104.606,351.754 104.404,352.167 104.238 C 360.140 101.025,366.590 95.108,368.952 88.839 C 373.195 77.581,360.829 68.784,354.425 78.505 C 354.008 79.138,353.667 79.835,353.667 80.054 C 353.667 81.566,350.227 85.821,347.592 87.570 C 341.401 91.680,334.058 91.118,332.935 86.448 L 332.822 85.980 332.036 86.554 C 324.175 92.293,316.387 91.368,314.804 84.509 C 314.570 83.495,314.583 83.495,313.750 84.473 C 309.000 90.050,300.830 92.081,296.928 88.654 C 296.325 88.125,295.500 86.603,295.500 86.020 C 295.500 85.411,295.201 85.487,294.221 86.347 C 288.478 91.383,279.964 91.684,278.129 86.917 C 277.241 84.609,277.639 82.105,279.666 77.250 C 280.202 75.967,281.477 72.892,282.499 70.417 C 283.522 67.942,284.699 65.092,285.116 64.083 C 285.533 63.075,285.910 62.157,285.954 62.043 C 286.012 61.894,285.831 61.912,285.309 62.107 C 284.298 62.485,281.757 62.503,281.083 62.137 C 276.642 59.722,281.121 49.836,287.122 48.806 C 290.977 48.145,293.011 50.998,291.562 55.032 C 291.062 56.426,290.090 58.425,289.837 58.581 C 289.290 58.919,289.962 59.000,293.323 59.000 C 295.337 59.000,297.022 59.068,297.074 59.151 C 297.125 59.235,296.863 60.041,296.490 60.943 C 296.117 61.845,295.511 63.332,295.142 64.247 C 294.464 65.930,291.317 73.496,290.912 74.417 C 287.893 81.278,287.685 82.222,289.052 82.842 C 291.398 83.908,295.195 81.474,296.998 77.750 C 297.649 76.405,299.079 72.977,302.666 64.167 C 304.918 58.634,305.151 58.067,307.016 53.583 C 309.694 47.146,309.662 46.174,306.767 46.028 C 305.258 45.951,305.289 46.139,306.400 43.792 L 307.301 41.890 308.692 41.634 C 310.608 41.281,313.762 41.263,315.049 41.596 M132.502 45.792 C 132.507 47.236,133.164 48.842,134.189 49.914 C 134.878 50.634,135.009 50.944,134.542 50.745 C 132.986 50.086,133.025 50.090,127.417 50.033 C 121.663 49.973,120.589 50.060,119.197 50.692 C 118.273 51.111,116.902 52.489,116.562 53.339 C 116.228 54.174,116.301 54.195,115.130 52.917 C 114.584 52.321,114.038 51.833,113.916 51.833 C 113.794 51.833,113.669 51.767,113.639 51.685 C 113.514 51.351,110.911 50.135,109.855 49.917 C 109.706 49.886,109.246 49.782,108.833 49.685 C 107.919 49.470,102.311 49.444,101.500 49.651 C 101.179 49.733,100.672 49.843,100.374 49.896 L 99.831 49.992 100.324 49.129 C 100.595 48.654,100.916 48.150,101.037 48.008 C 101.158 47.866,101.426 47.475,101.634 47.138 C 102.029 46.496,102.332 46.464,103.268 46.965 C 103.442 47.058,103.621 47.127,103.667 47.119 C 103.738 47.106,104.959 47.480,107.099 48.170 C 112.765 49.997,119.426 50.175,124.500 48.635 C 125.661 48.283,126.590 47.971,126.917 47.825 C 127.100 47.743,127.662 47.518,128.167 47.325 C 129.060 46.983,131.254 45.853,131.912 45.395 C 132.409 45.049,132.500 45.110,132.502 45.792 M189.250 55.394 C 198.736 57.931,194.392 73.075,183.389 75.826 C 182.216 76.120,181.499 76.167,178.202 76.167 L 174.377 76.167 174.171 76.901 C 173.566 79.062,174.339 82.047,175.859 83.420 C 180.598 87.702,191.840 83.669,194.697 76.663 C 195.126 75.611,196.530 72.204,197.817 69.093 C 201.201 60.913,201.224 60.180,198.106 59.888 C 197.498 59.832,197.000 59.710,197.000 59.619 C 197.000 59.100,198.753 55.819,199.070 55.746 C 206.119 54.121,210.333 55.837,210.333 60.333 C 210.333 62.676,209.950 63.908,206.915 71.333 C 202.401 82.374,202.447 82.200,203.866 82.933 C 206.181 84.130,209.743 81.615,211.088 77.833 C 211.529 76.596,212.823 73.296,213.964 70.500 C 217.838 61.013,217.896 60.154,214.683 59.884 C 214.032 59.830,213.500 59.768,213.500 59.747 C 213.500 59.279,215.411 55.822,215.707 55.753 C 221.682 54.366,225.961 55.499,226.917 58.721 C 227.575 60.935,227.079 63.340,224.867 68.667 C 220.014 80.353,219.357 84.313,222.195 84.773 C 224.148 85.090,225.536 84.027,225.805 82.010 C 226.176 79.222,227.892 74.759,232.214 65.333 C 232.445 64.829,232.983 63.640,233.408 62.690 C 233.834 61.740,234.326 60.652,234.501 60.273 C 234.676 59.894,235.190 58.758,235.642 57.750 L 236.464 55.917 241.346 55.872 C 244.031 55.848,246.281 55.886,246.345 55.956 C 246.409 56.026,246.011 57.021,245.459 58.167 C 244.907 59.313,242.961 63.512,241.134 67.500 C 235.432 79.944,233.278 83.393,229.281 86.476 C 223.851 90.665,215.203 91.665,211.770 88.501 C 211.019 87.809,210.167 86.373,210.167 85.801 C 210.167 85.370,210.081 85.409,209.029 86.308 C 202.703 91.717,194.018 91.674,192.636 86.226 C 192.523 85.781,192.412 85.389,192.390 85.355 C 192.367 85.321,192.064 85.513,191.716 85.781 C 188.017 88.632,182.261 90.334,176.333 90.329 C 163.215 90.318,160.083 78.246,169.667 64.634 C 174.352 57.979,183.239 53.786,189.250 55.394 M267.569 55.496 C 274.103 57.168,275.998 64.491,272.247 73.583 C 268.581 82.472,261.675 88.779,254.193 90.070 C 242.607 92.069,238.414 82.961,244.801 69.667 C 249.742 59.380,259.357 53.396,267.569 55.496 M184.149 59.642 C 182.283 60.825,179.197 65.120,177.006 69.583 C 175.340 72.976,175.294 72.667,177.470 72.667 C 181.034 72.667,182.328 71.724,184.442 67.583 C 187.565 61.471,187.420 57.567,184.149 59.642 M262.351 59.538 C 259.294 61.019,255.042 68.084,252.345 76.167 C 247.955 89.319,254.414 89.383,260.840 76.250 C 265.644 66.432,266.447 57.554,262.351 59.538 M337.006 60.267 C 333.495 61.210,330.566 64.661,326.833 72.250 C 322.624 80.808,323.030 85.660,327.851 84.425 C 330.320 83.793,332.747 81.990,333.404 80.302 C 333.877 79.083,335.159 75.993,336.880 71.917 C 339.663 65.329,341.215 61.280,341.058 61.019 C 340.525 60.135,338.734 59.802,337.006 60.267 M149.824 61.389 C 146.351 62.818,145.829 63.438,143.764 68.583 C 142.217 72.439,141.206 74.901,138.133 82.302 L 137.280 84.354 137.623 84.697 C 139.902 86.976,144.930 84.479,148.259 79.417 C 155.862 67.852,156.668 58.573,149.824 61.389 M362.381 80.591 C 364.261 81.869,364.625 84.693,363.275 87.522 C 362.702 88.723,362.004 90.001,361.829 90.167 C 361.781 90.212,361.481 90.587,361.163 91.000 C 359.485 93.176,356.576 95.544,353.583 97.173 C 351.724 98.184,349.287 99.333,349.001 99.333 C 348.915 99.333,348.598 99.438,348.297 99.566 C 347.996 99.694,347.525 99.893,347.250 100.010 C 346.975 100.127,346.675 100.238,346.583 100.258 C 346.492 100.278,345.554 100.565,344.500 100.896 C 343.446 101.228,342.184 101.573,341.695 101.664 C 341.207 101.755,340.736 101.874,340.648 101.928 C 340.180 102.218,333.852 102.982,329.833 103.235 C 323.879 103.610,312.303 103.897,308.167 103.772 C 306.196 103.713,303.008 103.626,301.083 103.578 C 297.085 103.480,289.715 103.106,284.583 102.742 C 282.658 102.606,279.958 102.417,278.583 102.323 C 275.546 102.116,270.293 101.633,263.250 100.914 C 258.877 100.468,257.417 100.324,256.500 100.249 C 255.996 100.207,254.946 100.101,254.167 100.012 C 253.387 99.923,251.662 99.731,250.333 99.585 C 249.004 99.440,247.017 99.213,245.917 99.082 C 244.817 98.951,243.504 98.800,243.000 98.747 C 242.496 98.694,241.108 98.538,239.917 98.401 C 238.725 98.264,237.075 98.087,236.250 98.007 C 235.425 97.928,234.112 97.783,233.333 97.685 C 232.554 97.586,230.904 97.395,229.667 97.260 C 228.429 97.125,226.404 96.902,225.167 96.764 C 223.929 96.626,222.297 96.465,221.541 96.406 C 220.182 96.300,219.603 96.101,220.470 96.039 C 224.736 95.731,230.611 93.318,233.425 90.719 C 233.704 90.461,234.154 90.063,234.425 89.833 C 234.695 89.604,235.423 88.876,236.042 88.215 C 236.660 87.554,237.167 87.112,237.167 87.233 C 237.167 88.505,239.934 92.067,242.167 93.668 C 246.429 96.726,254.220 97.049,260.250 94.418 C 260.525 94.298,261.057 94.085,261.432 93.945 C 263.617 93.129,267.601 90.226,270.066 87.654 C 271.047 86.630,271.872 85.821,271.900 85.855 C 271.928 85.889,272.042 86.404,272.152 87.000 C 273.709 95.401,283.134 98.643,292.957 94.156 C 293.737 93.800,294.022 93.761,294.258 93.979 C 294.537 94.237,296.016 95.007,296.728 95.265 C 298.670 95.971,299.241 96.058,302.000 96.071 C 305.034 96.085,306.831 95.787,308.917 94.923 C 309.680 94.607,312.546 93.182,312.868 92.959 C 313.100 92.797,313.227 92.832,313.566 93.150 C 316.768 96.159,323.513 97.066,328.500 95.160 C 329.004 94.967,329.642 94.727,329.917 94.626 C 330.192 94.525,330.638 94.319,330.910 94.169 C 331.391 93.902,331.425 93.909,332.410 94.494 C 334.985 96.025,340.075 96.654,343.250 95.834 C 345.817 95.171,348.510 94.032,350.201 92.893 C 350.659 92.585,351.101 92.333,351.183 92.333 C 351.266 92.333,351.333 92.275,351.333 92.203 C 351.333 92.131,351.547 91.945,351.809 91.791 C 353.123 91.014,355.769 88.269,357.086 86.314 C 357.871 85.149,359.333 82.313,359.333 81.955 C 359.333 80.733,361.297 79.855,362.381 80.591 M160.727 88.420 C 161.080 89.014,161.437 89.500,161.518 89.500 C 161.600 89.500,161.667 89.575,161.667 89.667 C 161.667 89.758,161.798 89.976,161.958 90.150 C 162.119 90.324,162.481 90.721,162.763 91.032 C 163.046 91.344,163.533 91.800,163.847 92.047 L 164.417 92.496 161.250 92.476 C 159.508 92.464,157.190 92.409,156.099 92.352 L 154.114 92.250 155.707 91.083 C 156.584 90.442,157.852 89.346,158.525 88.649 C 160.026 87.095,159.943 87.104,160.727 88.420 M51.924 90.585 C 51.134 92.000,49.458 94.750,49.062 95.281 C 48.845 95.572,48.667 95.891,48.667 95.989 C 48.667 96.087,48.610 96.169,48.542 96.171 C 48.473 96.174,48.233 96.474,48.008 96.838 C 47.783 97.202,47.540 97.500,47.466 97.500 C 47.393 97.500,47.333 97.576,47.333 97.668 C 47.333 98.217,43.283 102.160,41.976 102.883 C 37.045 105.612,33.584 103.134,34.533 97.555 C 34.872 95.562,34.869 95.564,36.238 95.908 C 39.524 96.732,45.659 95.493,47.846 93.565 C 47.991 93.438,48.171 93.333,48.246 93.333 C 48.499 93.333,50.656 91.503,51.635 90.458 C 52.390 89.652,52.435 89.671,51.924 90.585 M190.833 93.583 C 191.012 93.799,190.941 93.833,190.312 93.828 C 189.635 93.823,189.606 93.805,189.907 93.578 C 190.318 93.267,190.572 93.268,190.833 93.583 M210.299 94.608 C 210.730 94.842,211.346 95.140,211.667 95.270 L 212.250 95.506 211.669 95.416 C 211.350 95.367,209.963 95.247,208.587 95.150 C 205.920 94.963,205.689 94.918,206.438 94.730 C 206.700 94.664,207.328 94.403,207.833 94.150 C 208.672 93.729,208.782 93.711,209.132 93.937 C 209.342 94.072,209.867 94.375,210.299 94.608 " stroke="none" fill="#048ccc" fill-rule="evenodd"></path><path id="path3" d="M61.542 21.956 C 61.977 21.990,62.690 21.990,63.125 21.956 C 63.560 21.922,63.204 21.893,62.333 21.893 C 61.462 21.893,61.106 21.922,61.542 21.956 M131.740 26.042 L 131.250 26.583 131.792 26.094 C 132.090 25.825,132.333 25.581,132.333 25.552 C 132.333 25.423,132.196 25.537,131.740 26.042 M49.740 30.542 L 49.250 31.083 49.792 30.594 C 50.297 30.138,50.410 30.000,50.281 30.000 C 50.252 30.000,50.009 30.244,49.740 30.542 M110.875 32.286 C 111.127 32.324,111.540 32.324,111.792 32.286 C 112.044 32.248,111.837 32.217,111.333 32.217 C 110.829 32.217,110.623 32.248,110.875 32.286 M112.875 32.286 C 113.127 32.324,113.540 32.324,113.792 32.286 C 114.044 32.248,113.837 32.217,113.333 32.217 C 112.829 32.217,112.623 32.248,112.875 32.286 M46.205 38.333 C 46.205 38.654,46.240 38.785,46.282 38.625 C 46.323 38.465,46.323 38.202,46.282 38.042 C 46.240 37.881,46.205 38.012,46.205 38.333 M52.375 45.119 C 52.627 45.158,53.040 45.158,53.292 45.119 C 53.544 45.081,53.337 45.050,52.833 45.050 C 52.329 45.050,52.123 45.081,52.375 45.119 M318.879 46.333 C 318.879 46.746,318.911 46.915,318.951 46.708 C 318.991 46.502,318.991 46.165,318.951 45.958 C 318.911 45.752,318.879 45.921,318.879 46.333 M356.214 46.417 C 356.216 46.875,356.248 47.043,356.286 46.789 C 356.325 46.536,356.324 46.161,356.284 45.956 C 356.244 45.751,356.213 45.958,356.214 46.417 M138.794 45.951 C 139.001 45.991,139.301 45.990,139.460 45.948 C 139.620 45.906,139.450 45.874,139.083 45.875 C 138.717 45.877,138.586 45.911,138.794 45.951 M305.794 45.951 C 306.001 45.991,306.301 45.990,306.460 45.948 C 306.620 45.906,306.450 45.874,306.083 45.875 C 305.717 45.877,305.586 45.911,305.794 45.951 M343.294 45.951 C 343.501 45.991,343.801 45.990,343.960 45.948 C 344.120 45.906,343.950 45.874,343.583 45.875 C 343.217 45.877,343.086 45.911,343.294 45.951 M141.872 48.000 C 141.872 48.321,141.906 48.452,141.948 48.292 C 141.990 48.131,141.990 47.869,141.948 47.708 C 141.906 47.548,141.872 47.679,141.872 48.000 M287.708 48.786 C 287.960 48.824,288.373 48.824,288.625 48.786 C 288.877 48.748,288.671 48.717,288.167 48.717 C 287.662 48.717,287.456 48.748,287.708 48.786 M279.205 58.667 C 279.205 58.987,279.240 59.119,279.282 58.958 C 279.323 58.798,279.323 58.535,279.282 58.375 C 279.240 58.215,279.205 58.346,279.205 58.667 M186.712 60.833 C 186.712 61.246,186.745 61.415,186.784 61.208 C 186.824 61.002,186.824 60.665,186.784 60.458 C 186.745 60.252,186.712 60.421,186.712 60.833 M172.328 61.458 L 171.417 62.417 172.375 61.506 C 172.902 61.005,173.333 60.573,173.333 60.547 C 173.333 60.424,173.174 60.568,172.328 61.458 M151.708 60.948 C 151.869 60.990,152.131 60.990,152.292 60.948 C 152.452 60.906,152.321 60.872,152.000 60.872 C 151.679 60.872,151.548 60.906,151.708 60.948 M44.460 74.785 C 44.668 74.824,44.968 74.823,45.127 74.781 C 45.286 74.739,45.117 74.707,44.750 74.709 C 44.383 74.711,44.253 74.745,44.460 74.785 M164.055 79.083 C 164.055 79.725,164.086 79.967,164.122 79.621 C 164.158 79.275,164.157 78.750,164.120 78.455 C 164.083 78.159,164.054 78.442,164.055 79.083 M192.491 80.125 L 191.917 80.750 192.542 80.176 C 192.885 79.860,193.167 79.578,193.167 79.551 C 193.167 79.423,193.026 79.543,192.491 80.125 M323.875 81.417 C 323.877 81.783,323.911 81.914,323.951 81.706 C 323.991 81.499,323.990 81.199,323.948 81.040 C 323.906 80.880,323.874 81.050,323.875 81.417 M225.705 82.833 C 225.705 83.154,225.740 83.285,225.782 83.125 C 225.823 82.965,225.823 82.702,225.782 82.542 C 225.740 82.381,225.705 82.512,225.705 82.833 M94.045 84.333 C 94.045 84.746,94.078 84.915,94.118 84.708 C 94.157 84.502,94.157 84.165,94.118 83.958 C 94.078 83.752,94.045 83.921,94.045 84.333 M147.042 98.288 C 147.385 98.324,147.948 98.324,148.292 98.288 C 148.635 98.252,148.354 98.223,147.667 98.223 C 146.979 98.223,146.698 98.252,147.042 98.288 M159.795 98.287 C 160.094 98.325,160.544 98.324,160.795 98.286 C 161.045 98.248,160.800 98.217,160.250 98.218 C 159.700 98.219,159.495 98.250,159.795 98.287 M179.794 98.951 C 180.001 98.991,180.301 98.990,180.460 98.948 C 180.620 98.906,180.450 98.874,180.083 98.875 C 179.717 98.877,179.586 98.911,179.794 98.951 M189.042 99.448 C 189.202 99.490,189.465 99.490,189.625 99.448 C 189.785 99.406,189.654 99.372,189.333 99.372 C 189.012 99.372,188.881 99.406,189.042 99.448 M60.411 105.708 L 59.417 106.750 60.458 105.755 C 61.031 105.208,61.500 104.739,61.500 104.714 C 61.500 104.590,61.336 104.741,60.411 105.708 M294.458 109.118 C 294.665 109.157,295.002 109.157,295.208 109.118 C 295.415 109.078,295.246 109.045,294.833 109.045 C 294.421 109.045,294.252 109.078,294.458 109.118 M327.794 109.118 C 328.001 109.158,328.301 109.156,328.460 109.115 C 328.620 109.073,328.450 109.040,328.083 109.042 C 327.717 109.044,327.586 109.078,327.794 109.118 M192.460 118.618 C 192.668 118.658,192.968 118.656,193.127 118.615 C 193.286 118.573,193.117 118.540,192.750 118.542 C 192.383 118.544,192.253 118.578,192.460 118.618 M218.458 118.618 C 218.665 118.657,219.002 118.657,219.208 118.618 C 219.415 118.578,219.246 118.545,218.833 118.545 C 218.421 118.545,218.252 118.578,218.458 118.618 M236.794 119.118 C 237.001 119.158,237.301 119.156,237.460 119.115 C 237.620 119.073,237.450 119.040,237.083 119.042 C 236.717 119.044,236.586 119.078,236.794 119.118 M242.795 119.287 C 243.094 119.325,243.544 119.324,243.795 119.286 C 244.045 119.248,243.800 119.217,243.250 119.218 C 242.700 119.219,242.495 119.250,242.795 119.287 M251.125 119.618 C 251.331 119.657,251.669 119.657,251.875 119.618 C 252.081 119.578,251.912 119.545,251.500 119.545 C 251.088 119.545,250.919 119.578,251.125 119.618 M255.877 119.786 C 256.131 119.825,256.506 119.824,256.711 119.784 C 256.916 119.744,256.708 119.713,256.250 119.714 C 255.792 119.716,255.624 119.748,255.877 119.786 M264.544 120.120 C 264.797 120.158,265.172 120.157,265.377 120.117 C 265.582 120.078,265.375 120.046,264.917 120.048 C 264.458 120.049,264.291 120.081,264.544 120.120 M268.377 120.286 C 268.631 120.325,269.006 120.324,269.211 120.284 C 269.416 120.244,269.208 120.213,268.750 120.214 C 268.292 120.216,268.124 120.248,268.377 120.286 M277.711 120.620 C 277.964 120.658,278.339 120.657,278.544 120.617 C 278.749 120.578,278.542 120.546,278.083 120.548 C 277.625 120.549,277.457 120.581,277.711 120.620 M282.042 120.782 C 282.202 120.823,282.465 120.823,282.625 120.782 C 282.785 120.740,282.654 120.705,282.333 120.705 C 282.012 120.705,281.881 120.740,282.042 120.782 M287.125 120.951 C 287.331 120.991,287.669 120.991,287.875 120.951 C 288.081 120.911,287.912 120.879,287.500 120.879 C 287.087 120.879,286.919 120.911,287.125 120.951 M295.881 121.123 C 296.412 121.157,297.237 121.156,297.714 121.123 C 298.192 121.089,297.758 121.062,296.750 121.062 C 295.742 121.063,295.351 121.090,295.881 121.123 M305.797 121.123 C 306.282 121.157,307.032 121.156,307.464 121.122 C 307.896 121.088,307.500 121.060,306.583 121.061 C 305.667 121.061,305.313 121.089,305.797 121.123 M63.740 123.708 L 63.250 124.250 63.792 123.760 C 64.297 123.304,64.410 123.167,64.281 123.167 C 64.252 123.167,64.009 123.410,63.740 123.708 M70.463 132.289 C 70.855 132.324,71.455 132.324,71.796 132.288 C 72.137 132.252,71.817 132.223,71.083 132.224 C 70.350 132.224,70.071 132.254,70.463 132.289 " stroke="none" fill="#1d95d4" fill-rule="evenodd"></path><path id="path4" d="M46.910 27.875 L 46.083 28.750 46.958 27.923 C 47.771 27.154,47.910 27.000,47.785 27.000 C 47.759 27.000,47.365 27.394,46.910 27.875 M109.627 32.285 C 109.834 32.324,110.134 32.323,110.294 32.281 C 110.453 32.239,110.283 32.207,109.917 32.209 C 109.550 32.211,109.420 32.245,109.627 32.285 M114.460 32.285 C 114.668 32.324,114.968 32.323,115.127 32.281 C 115.286 32.239,115.117 32.207,114.750 32.209 C 114.383 32.211,114.253 32.245,114.460 32.285 M55.158 33.292 L 54.583 33.917 55.208 33.342 C 55.552 33.026,55.833 32.745,55.833 32.717 C 55.833 32.590,55.692 32.710,55.158 33.292 M65.552 36.750 C 65.553 37.300,65.584 37.505,65.621 37.205 C 65.658 36.906,65.657 36.456,65.619 36.205 C 65.581 35.955,65.551 36.200,65.552 36.750 M132.075 37.708 L 131.417 38.417 132.125 37.758 C 132.784 37.145,132.910 37.000,132.784 37.000 C 132.757 37.000,132.438 37.319,132.075 37.708 M51.712 40.667 C 51.712 41.079,51.745 41.248,51.784 41.042 C 51.824 40.835,51.824 40.498,51.784 40.292 C 51.745 40.085,51.712 40.254,51.712 40.667 M84.491 44.792 L 83.917 45.417 84.542 44.842 C 85.123 44.308,85.243 44.167,85.116 44.167 C 85.088 44.167,84.807 44.448,84.491 44.792 M309.039 48.000 C 309.039 48.321,309.073 48.452,309.115 48.292 C 309.157 48.131,309.157 47.869,309.115 47.708 C 309.073 47.548,309.039 47.679,309.039 48.000 M124.385 55.958 C 125.743 55.986,127.918 55.986,129.219 55.958 C 130.519 55.930,129.408 55.907,126.750 55.907 C 124.092 55.907,123.028 55.930,124.385 55.958 M239.052 55.958 C 240.410 55.986,242.585 55.986,243.885 55.958 C 245.186 55.930,244.075 55.907,241.417 55.907 C 238.758 55.907,237.694 55.930,239.052 55.958 M291.292 59.124 C 292.323 59.154,294.010 59.154,295.042 59.124 C 296.073 59.095,295.229 59.071,293.167 59.071 C 291.104 59.071,290.260 59.095,291.292 59.124 M250.410 61.542 L 249.583 62.417 250.458 61.590 C 250.940 61.135,251.333 60.741,251.333 60.715 C 251.333 60.590,251.179 60.729,250.410 61.542 M265.053 62.167 C 265.053 62.762,265.084 63.006,265.121 62.708 C 265.158 62.410,265.158 61.923,265.121 61.625 C 265.084 61.327,265.053 61.571,265.053 62.167 M176.297 72.790 C 176.782 72.824,177.532 72.823,177.964 72.789 C 178.396 72.755,178.000 72.727,177.083 72.728 C 176.167 72.728,175.813 72.756,176.297 72.790 M355.740 76.708 L 355.250 77.250 355.792 76.760 C 356.297 76.304,356.410 76.167,356.281 76.167 C 356.252 76.167,356.009 76.410,355.740 76.708 M30.833 80.917 C 30.428 81.329,30.135 81.667,30.181 81.667 C 30.226 81.667,30.595 81.329,31.000 80.917 C 31.405 80.504,31.699 80.167,31.653 80.167 C 31.607 80.167,31.238 80.504,30.833 80.917 M209.491 80.958 L 208.917 81.583 209.542 81.009 C 209.885 80.693,210.167 80.412,210.167 80.384 C 210.167 80.257,210.026 80.377,209.491 80.958 M220.379 82.333 C 220.379 82.746,220.411 82.915,220.451 82.708 C 220.491 82.502,220.491 82.165,220.451 81.958 C 220.411 81.752,220.379 81.921,220.379 82.333 M369.875 84.083 C 369.877 84.450,369.911 84.580,369.951 84.373 C 369.991 84.166,369.990 83.866,369.948 83.706 C 369.906 83.547,369.874 83.717,369.875 84.083 M277.709 84.417 C 277.711 84.783,277.745 84.914,277.785 84.706 C 277.824 84.499,277.823 84.199,277.781 84.040 C 277.739 83.880,277.707 84.050,277.709 84.417 M34.401 85.042 C 34.084 85.416,34.084 85.416,34.430 85.125 C 34.621 84.964,34.827 84.883,34.889 84.944 C 34.950 85.005,35.000 84.968,35.000 84.861 C 35.000 84.556,34.748 84.632,34.401 85.042 M350.000 85.417 C 349.595 85.829,349.301 86.167,349.347 86.167 C 349.393 86.167,349.762 85.829,350.167 85.417 C 350.572 85.004,350.865 84.667,350.819 84.667 C 350.774 84.667,350.405 85.004,350.000 85.417 M180.708 85.286 C 180.960 85.324,181.373 85.324,181.625 85.286 C 181.877 85.248,181.671 85.217,181.167 85.217 C 180.662 85.217,180.456 85.248,180.708 85.286 M375.052 86.917 C 375.053 87.467,375.084 87.672,375.121 87.372 C 375.158 87.072,375.157 86.622,375.119 86.372 C 375.081 86.122,375.051 86.367,375.052 86.917 M22.724 99.417 C 22.724 100.150,22.754 100.429,22.789 100.037 C 22.824 99.645,22.824 99.045,22.788 98.704 C 22.752 98.363,22.723 98.683,22.724 99.417 M140.460 98.451 C 140.668 98.491,140.968 98.490,141.127 98.448 C 141.286 98.406,141.117 98.374,140.750 98.375 C 140.383 98.377,140.253 98.411,140.460 98.451 M166.208 98.448 C 166.369 98.490,166.631 98.490,166.792 98.448 C 166.952 98.406,166.821 98.372,166.500 98.372 C 166.179 98.372,166.048 98.406,166.208 98.448 M134.125 98.618 C 134.331 98.657,134.669 98.657,134.875 98.618 C 135.081 98.578,134.912 98.545,134.500 98.545 C 134.087 98.545,133.919 98.578,134.125 98.618 M172.377 98.620 C 172.631 98.658,173.006 98.657,173.211 98.617 C 173.416 98.578,173.208 98.546,172.750 98.548 C 172.292 98.549,172.124 98.581,172.377 98.620 M49.573 104.042 L 49.083 104.583 49.625 104.094 C 50.130 103.638,50.243 103.500,50.115 103.500 C 50.086 103.500,49.842 103.744,49.573 104.042 M324.042 109.282 C 324.202 109.323,324.465 109.323,324.625 109.282 C 324.785 109.240,324.654 109.205,324.333 109.205 C 324.012 109.205,323.881 109.240,324.042 109.282 M303.042 109.448 C 303.202 109.490,303.465 109.490,303.625 109.448 C 303.785 109.406,303.654 109.372,303.333 109.372 C 303.012 109.372,302.881 109.406,303.042 109.448 M319.125 109.451 C 319.331 109.491,319.669 109.491,319.875 109.451 C 320.081 109.411,319.912 109.379,319.500 109.379 C 319.087 109.379,318.919 109.411,319.125 109.451 M26.750 110.167 C 27.108 110.533,27.438 110.833,27.484 110.833 C 27.530 110.833,27.275 110.533,26.917 110.167 C 26.559 109.800,26.228 109.500,26.182 109.500 C 26.137 109.500,26.392 109.800,26.750 110.167 M199.048 118.457 C 199.578 118.490,200.403 118.490,200.881 118.456 C 201.359 118.422,200.925 118.395,199.917 118.396 C 198.908 118.396,198.517 118.424,199.048 118.457 M211.875 118.455 C 212.219 118.491,212.781 118.491,213.125 118.455 C 213.469 118.419,213.188 118.389,212.500 118.389 C 211.813 118.389,211.531 118.419,211.875 118.455 M190.455 118.620 C 190.750 118.657,191.275 118.658,191.621 118.622 C 191.967 118.586,191.725 118.555,191.083 118.555 C 190.442 118.554,190.159 118.583,190.455 118.620 M220.129 118.622 C 220.521 118.657,221.121 118.657,221.463 118.621 C 221.804 118.585,221.483 118.557,220.750 118.557 C 220.017 118.558,219.737 118.587,220.129 118.622 M228.875 118.782 C 229.035 118.823,229.298 118.823,229.458 118.782 C 229.619 118.740,229.487 118.705,229.167 118.705 C 228.846 118.705,228.715 118.740,228.875 118.782 M232.875 118.948 C 233.035 118.990,233.298 118.990,233.458 118.948 C 233.619 118.906,233.487 118.872,233.167 118.872 C 232.846 118.872,232.715 118.906,232.875 118.948 M238.128 119.121 C 238.428 119.158,238.878 119.157,239.128 119.119 C 239.378 119.081,239.133 119.051,238.583 119.052 C 238.033 119.053,237.828 119.084,238.128 119.121 M247.708 119.448 C 247.869 119.490,248.131 119.490,248.292 119.448 C 248.452 119.406,248.321 119.372,248.000 119.372 C 247.679 119.372,247.548 119.406,247.708 119.448 M252.542 119.619 C 252.794 119.658,253.206 119.658,253.458 119.619 C 253.710 119.581,253.504 119.550,253.000 119.550 C 252.496 119.550,252.290 119.581,252.542 119.619 M260.625 119.951 C 260.831 119.991,261.169 119.991,261.375 119.951 C 261.581 119.911,261.412 119.879,261.000 119.879 C 260.587 119.879,260.419 119.911,260.625 119.951 M288.708 120.955 C 289.052 120.991,289.615 120.991,289.958 120.955 C 290.302 120.919,290.021 120.889,289.333 120.889 C 288.646 120.889,288.365 120.919,288.708 120.955 M311.125 120.951 C 311.331 120.991,311.669 120.991,311.875 120.951 C 312.081 120.911,311.912 120.879,311.500 120.879 C 311.087 120.879,310.919 120.911,311.125 120.951 M61.830 125.625 L 60.417 127.083 61.875 125.670 C 63.229 124.358,63.409 124.167,63.288 124.167 C 63.263 124.167,62.607 124.823,61.830 125.625 M93.000 140.083 C 93.311 140.404,93.603 140.667,93.649 140.667 C 93.695 140.667,93.478 140.404,93.167 140.083 C 92.856 139.762,92.564 139.500,92.518 139.500 C 92.472 139.500,92.689 139.762,93.000 140.083 " stroke="none" fill="#35a0d6" fill-rule="evenodd"></path></g></svg>